<?xml version="1.0" standalone="no"?>
<!DOCTYPE svg PUBLIC "-//W3C//DTD SVG 20010904//EN"
 "http://www.w3.org/TR/2001/REC-SVG-20010904/DTD/svg10.dtd">
<svg version="1.0" xmlns="http://www.w3.org/2000/svg"
 width="512.000000pt" height="512.000000pt" viewBox="0 0 512.000000 512.000000"
 preserveAspectRatio="xMidYMid meet">

<g transform="translate(0.000000,512.000000) scale(0.100000,-0.100000)"
fill="#000000" stroke="none">
<path d="M1 4128 c1 -591 5 -983 10 -968 5 15 6 -6 1 -55 -9 -103 -9 -1214 0
-1280 5 -33 4 -40 -1 -20 -5 17 -9 -366 -10 -887 l-1 -918 638 1 c582 0 635 1
615 16 -13 8 -23 20 -23 26 0 6 13 -1 28 -16 24 -23 36 -27 88 -27 59 1 59 1
31 16 -44 24 -24 28 22 5 37 -20 57 -21 280 -21 224 0 240 1 235 17 -5 17 -5
17 9 1 22 -27 37 -23 24 7 -12 26 -36 32 -53 15 -6 -6 -10 -3 -11 10 -2 27 9
32 46 19 33 -12 56 -42 46 -59 -4 -7 99 -10 289 -10 l296 0 0 26 c0 18 20 45
68 95 37 38 74 69 81 69 25 0 3 -61 -38 -105 -21 -23 -44 -52 -50 -64 -10 -19
-9 -21 11 -21 17 0 36 18 71 66 27 36 51 63 54 60 4 -3 -7 -23 -24 -44 -16
-20 -35 -47 -42 -59 l-12 -23 301 0 300 0 0 24 c0 13 -6 26 -12 29 -18 6 -9
13 27 21 29 7 29 7 11 -12 -14 -16 -15 -24 -6 -41 9 -17 20 -21 60 -21 48 0
50 1 51 28 l1 27 10 -27 c9 -26 14 -28 64 -28 46 0 62 5 104 35 27 19 55 35
62 35 6 0 20 7 30 17 10 9 18 12 18 7 0 -10 -47 -42 -105 -73 l-40 -20 88 0
c78 1 96 5 155 34 37 18 74 41 82 51 9 10 -22 -2 -74 -29 -48 -26 -93 -47
-100 -47 -6 0 43 30 109 66 66 37 136 77 155 90 19 13 46 31 60 40 14 9 4 -3
-22 -28 -27 -25 -48 -51 -48 -57 0 -9 -90 -73 -155 -109 -15 -9 146 -11 648
-12 l667 0 0 753 c-1 657 -3 749 -15 727 -8 -14 -14 -33 -15 -43 0 -22 -49
-121 -56 -114 -3 3 1 18 9 34 8 15 28 69 46 120 36 106 41 183 13 211 -17 17
-17 25 -4 122 7 58 15 125 18 150 l4 45 -22 -45 c-18 -34 -30 -47 -53 -51
l-30 -7 33 -1 c20 -1 32 -6 32 -15 0 -14 -71 -66 -90 -66 -5 0 -10 -4 -10 -10
0 -5 4 -10 10 -10 15 0 31 -76 25 -122 -4 -24 -15 -82 -27 -131 -17 -72 -25
-91 -48 -107 -29 -21 -55 -19 -64 6 -4 9 -14 12 -36 8 -34 -7 -35 -5 -18 31
13 30 28 33 28 5 0 -28 49 -39 67 -15 7 11 13 25 13 33 0 8 8 26 19 40 40 57
54 172 25 208 -14 18 -15 16 -9 -28 3 -26 3 -64 -2 -85 -7 -35 -8 -31 -15 42
-4 44 -9 86 -10 93 -1 13 -10 12 -53 -3 -16 -6 -15 -3 5 14 14 11 33 21 43 21
24 0 21 17 -9 47 -23 23 -24 27 -11 41 10 10 24 12 42 8 l26 -7 -23 -18 -23
-19 38 -7 c63 -12 65 6 8 62 -28 28 -51 59 -51 70 0 19 -26 51 -34 42 -2 -2
-18 -71 -36 -154 -46 -216 -135 -485 -160 -485 -5 0 -7 -6 -4 -13 5 -15 -62
-178 -77 -188 -6 -3 -10 -10 -9 -15 1 -5 -16 -37 -37 -72 -42 -68 -127 -193
-122 -177 9 25 104 190 110 193 4 2 13 20 20 40 7 20 20 48 30 61 11 13 19 27
19 32 0 26 43 118 52 112 8 -4 9 0 5 11 -4 9 4 42 17 74 83 199 148 474 162
680 l7 102 -30 0 -30 0 -7 -107 c-11 -167 -58 -384 -127 -580 -103 -294 -197
-459 -352 -618 -38 -38 -77 -87 -88 -107 -12 -24 -24 -35 -33 -32 -8 3 -43
-23 -87 -65 -40 -39 -79 -71 -86 -71 -21 0 -64 -31 -57 -41 3 -5 -7 -13 -21
-19 -36 -14 -145 -89 -151 -104 -3 -7 -10 -13 -17 -13 -7 0 -56 -28 -111 -62
-54 -34 -101 -60 -103 -57 -3 2 -25 -4 -50 -15 -26 -11 -102 -40 -170 -65 -69
-25 -137 -53 -151 -64 -15 -10 -71 -31 -124 -46 -54 -15 -96 -29 -94 -31 3 -3
69 9 126 23 14 3 5 -4 -19 -15 -24 -12 -55 -21 -69 -21 l-26 0 22 -16 c16 -11
22 -25 21 -52 0 -34 -1 -35 -11 -14 -12 23 -31 31 -22 9 4 -11 -10 -13 -58 -8
-4 1 4 18 18 39 25 36 25 37 5 40 -17 3 -21 11 -21 38 0 25 -8 42 -26 59 -15
14 -21 25 -14 25 6 0 25 -14 41 -31 l28 -30 53 15 c29 9 110 32 181 52 243 68
451 165 623 287 264 189 454 374 588 572 167 246 317 689 345 1019 10 120 5
163 -20 177 -11 5 -19 15 -19 21 0 7 -8 21 -19 32 -10 12 -26 35 -36 51 -16
27 -15 26 13 -6 17 -20 56 -46 89 -61 32 -14 69 -30 83 -36 l25 -11 -27 0
c-14 -1 -48 8 -75 19 -48 20 -48 20 -23 0 43 -34 116 -53 178 -46 89 10 182
63 182 102 0 15 -4 14 -27 -8 -39 -36 -83 -56 -134 -63 -42 -5 -42 -4 13 12
32 10 78 33 103 50 37 27 45 38 45 63 0 18 -4 29 -10 25 -6 -3 -10 1 -10 9 0
8 5 18 10 21 6 3 9 27 8 53 -1 37 -2 40 -5 14 -8 -60 -72 -73 -156 -33 -26 13
-54 20 -63 17 -22 -8 -84 62 -84 95 0 27 -16 39 -51 39 -29 0 -23 15 24 64 35
37 50 45 94 51 65 9 97 1 147 -33 51 -35 77 -72 86 -119 7 -37 8 -36 9 16 1
46 -4 60 -31 97 -38 49 -88 71 -183 81 -53 5 -68 2 -113 -21 -68 -35 -114 -76
-142 -129 -13 -25 -32 -50 -42 -56 -18 -11 -18 -10 -4 24 34 80 131 172 217
205 73 27 169 26 169 -2 0 -6 -6 -8 -13 -5 -8 3 -20 1 -28 -4 -10 -6 -4 -9 19
-9 39 0 92 -21 111 -43 32 -39 57 4 31 54 -8 13 -7 19 0 19 7 0 10 15 8 38 -3
34 -7 39 -67 71 -82 43 -166 52 -241 25 -58 -21 -85 -44 -52 -44 11 0 30 -9
43 -20 24 -19 24 -19 3 -20 -12 0 -27 6 -33 14 -8 10 -26 13 -59 10 l-47 -4
28 22 c15 13 41 34 57 48 l30 25 -24 106 c-95 418 -310 812 -618 1135 -287
299 -685 525 -1068 604 -87 18 -96 19 -105 4 -5 -9 -20 -29 -33 -44 -20 -25
-20 -28 -4 -23 12 3 38 -12 73 -42 33 -28 55 -41 58 -33 2 6 -11 25 -30 40
-33 28 -33 28 -8 28 40 0 49 -18 49 -95 -1 -57 -3 -66 -12 -50 -6 11 -12 21
-14 23 -1 2 -20 -6 -43 -17 -25 -13 -59 -21 -91 -21 -51 0 -60 6 -38 28 9 9 4
12 -24 12 -20 0 -40 5 -44 11 -3 6 -14 -12 -24 -41 -10 -29 -26 -64 -37 -79
-28 -37 -82 -71 -112 -70 -22 0 -21 2 13 15 51 19 75 40 97 89 23 49 24 82 2
40 -23 -44 -44 -65 -65 -65 -10 0 -18 7 -18 15 0 9 -13 18 -31 22 -28 5 -79
56 -79 79 0 21 -22 84 -33 97 -7 7 -17 22 -23 32 -8 13 -20 19 -35 17 -23 -3
-23 -2 8 29 27 28 41 33 90 37 76 5 123 -14 162 -69 17 -23 31 -36 31 -29 0 7
-21 34 -48 60 -38 39 -56 49 -94 55 -96 15 -187 -25 -235 -101 -14 -22 -22
-30 -19 -18 4 11 -1 28 -10 40 -8 10 -12 13 -8 5 5 -11 -2 -12 -37 -6 l-44 7
29 -31 c18 -18 24 -31 16 -31 -7 0 -33 20 -57 45 -31 32 -43 54 -43 75 0 31
30 60 63 60 32 0 92 -37 107 -67 8 -15 15 -30 17 -32 1 -2 16 8 33 23 18 14
43 29 57 32 19 5 23 11 19 28 -4 19 -4 19 8 4 10 -14 23 -16 68 -11 l56 6 7
51 c3 28 12 57 18 66 6 8 1 6 -11 -4 -13 -11 -31 -38 -41 -61 -13 -30 -24 -41
-42 -42 -13 -1 -19 1 -12 5 8 5 10 31 6 85 l-6 77 -67 0 c-59 0 -69 -3 -88
-25 -24 -28 -42 -25 -42 6 0 16 -7 19 -40 19 -34 0 -40 -3 -40 -22 0 -21 -1
-21 -20 -3 -20 18 -21 18 -18 -16 3 -28 0 -34 -17 -34 -16 0 -21 8 -23 38 -2
27 -8 37 -20 37 -34 0 -44 -16 -40 -59 3 -37 2 -40 -10 -24 -8 11 -11 32 -8
53 5 32 4 34 -9 16 -13 -17 -15 -18 -15 -3 0 15 -16 17 -147 17 -145 0 -225
-13 -316 -49 -36 -14 -38 -14 -31 4 8 19 -7 19 -32 0 -19 -14 -19 -14 1 -15
11 0 -27 -21 -85 -46 -57 -25 -111 -50 -119 -57 -12 -10 -13 -9 -6 2 6 11 4
13 -11 8 -18 -7 -18 -6 -1 7 43 34 3 27 -91 -15 -78 -35 -158 -92 -317 -223
-198 -165 -469 -439 -450 -458 2 -2 -6 -15 -18 -29 -12 -14 -18 -19 -14 -12 5
7 7 18 4 25 -7 22 81 127 253 299 231 232 433 388 660 508 l95 51 -732 0 -733
0 1 -992z m1944 935 c18 -56 50 -97 68 -90 6 2 17 -1 24 -8 9 -10 6 -14 -18
-17 -16 -3 -29 -2 -29 2 0 4 -12 12 -26 18 -14 7 -23 16 -20 21 3 4 -1 17 -9
27 -12 16 -14 17 -15 3 0 -18 -27 -45 -35 -37 -3 3 1 18 10 34 8 16 15 44 15
62 0 46 16 39 35 -15z m-126 10 c-5 -57 2 -93 19 -93 14 -1 15 -2 2 -9 -8 -5
-26 -12 -40 -16 -21 -7 -23 -6 -13 7 17 19 13 85 -5 100 -12 10 -11 13 5 19
29 12 34 10 32 -8z m-69 -73 c0 -13 -6 -17 -19 -13 -16 4 -18 9 -10 30 8 22 7
24 -16 21 -31 -4 -34 15 -3 22 17 5 26 0 35 -18 7 -13 13 -32 13 -42z m270 28
c0 -16 -3 -19 -11 -11 -6 6 -8 16 -5 22 11 17 16 13 16 -11z m385 -28 c28 0
34 -17 10 -27 -21 -7 -55 25 -54 51 0 20 1 20 9 -1 6 -16 18 -23 35 -23z
m-780 -20 c4 -27 11 -52 16 -56 14 -8 10 -24 -6 -24 -13 0 -20 19 -16 44 1 4
-3 13 -8 20 -16 19 -17 66 -2 66 5 0 12 -22 16 -50z m-85 3 c0 -3 -7 -15 -17
-25 -15 -17 -15 -18 6 -18 58 0 82 -47 36 -68 -38 -18 -53 -15 -71 13 -14 22
-15 30 -4 50 7 13 10 31 7 39 -5 12 0 16 18 16 14 0 25 -3 25 -7z m575 -13 c8
-13 -35 -13 -55 0 -11 7 -7 10 17 10 17 0 35 -4 38 -10z m63 -39 c-12 -4 -28
17 -28 39 0 10 7 7 20 -10 11 -15 15 -26 8 -29z m-428 20 c0 -5 -13 -14 -30
-20 -37 -13 -39 -6 -2 13 33 18 32 18 32 7z m104 -26 c-10 -8 -25 -15 -31 -15
-7 0 -13 -5 -13 -11 0 -6 -6 -9 -12 -7 -7 3 -19 -1 -26 -9 -7 -7 -21 -13 -30
-13 -25 1 23 36 73 54 52 19 63 19 39 1z m306 -10 c10 -12 8 -15 -12 -20 -166
-38 -289 -69 -317 -81 -19 -8 -61 -21 -95 -30 -34 -9 -83 -26 -111 -39 -57
-25 -95 -38 -95 -32 0 7 203 96 283 124 74 26 303 91 323 92 6 1 17 -6 24 -14z
m-906 -32 c-57 -20 -184 -128 -184 -155 0 -18 -1 -18 -16 -3 -20 20 -12 30 61
81 30 20 55 40 55 44 0 6 47 33 62 34 3 1 10 4 14 9 4 4 10 4 13 1 3 -4 1 -8
-5 -11z m59 -50 c-11 -33 -16 -37 -23 -17 -9 23 -4 34 15 34 9 0 12 -6 8 -17z
m50 -26 c-7 -11 -23 12 -23 32 0 11 4 9 14 -4 8 -11 12 -24 9 -28z m96 9 c-10
-9 -69 -36 -69 -32 0 7 52 35 64 36 5 0 7 -2 5 -4z m66 -25 c-3 -6 -11 -8 -17
-5 -6 4 -5 9 3 15 16 10 23 4 14 -10z m530 -11 c4 -6 -5 -10 -19 -10 -14 0
-26 5 -26 10 0 6 9 10 19 10 11 0 23 -4 26 -10z m-867 -23 c6 -6 13 -26 17
-42 7 -32 8 -33 -33 34 -14 23 -1 29 16 8z m1097 -23 c42 -45 31 -54 -35 -30
-32 12 -33 13 -15 24 11 6 14 12 8 12 -19 0 -16 20 2 20 9 0 27 -12 40 -26z
m-969 1 c-23 -17 -36 -19 -36 -6 0 5 8 12 18 14 32 9 37 6 18 -8z m1989 -75
c-23 -50 -41 -65 -31 -24 4 16 4 26 0 22 -9 -10 -34 10 -34 28 0 16 61 35 74
23 6 -5 2 -25 -9 -49z m-2321 25 c-4 -8 -10 -12 -15 -9 -11 6 -2 24 11 24 5 0
7 -7 4 -15z m2376 -27 c0 -25 -3 -29 -10 -18 -13 20 -13 50 0 50 6 0 10 -15
10 -32z m-2296 -4 c11 -28 6 -39 -9 -20 -8 11 -15 23 -15 28 0 14 18 9 24 -8z
m386 7 c0 -5 -7 -11 -15 -15 -15 -5 -20 5 -8 17 9 10 23 9 23 -2z m1447 -51
c-1 -3 9 -26 23 -52 24 -46 24 -46 52 -32 28 14 28 14 28 -16 0 -17 6 -39 13
-51 10 -17 9 -22 -7 -35 -28 -20 -59 -18 -90 7 -15 12 -45 23 -67 26 -71 10
-97 87 -38 116 l31 15 -24 16 c-23 17 -22 17 29 14 28 -2 51 -5 50 -8z m228
-31 c57 1 68 -1 90 -23 29 -30 31 -43 8 -76 -23 -35 -33 -40 -74 -40 -38 0
-77 30 -64 49 10 17 34 13 62 -9 20 -15 29 -17 45 -9 28 15 17 32 -33 50 -71
25 -135 60 -148 81 -11 17 -9 17 18 -3 25 -18 42 -22 96 -20z m-1413 6 c16
-36 -1 -51 -57 -50 -60 2 -78 19 -45 43 25 17 54 29 78 31 7 1 17 -10 24 -24z
m-812 -20 c-19 -19 -39 -35 -44 -35 -13 0 54 67 68 69 6 1 -5 -15 -24 -34z
m2641 15 c24 -13 25 -57 2 -82 -19 -22 -61 -23 -88 -2 -18 13 -17 14 15 9 34
-5 34 -5 10 7 -14 7 -34 21 -44 30 -16 14 -17 20 -6 33 14 17 81 20 111 5z
m-177 -72 c33 -21 66 -38 75 -38 19 -1 111 -49 94 -50 -6 0 -24 5 -39 10 -22
9 -29 8 -36 -5 -11 -18 -78 -21 -78 -2 0 6 -28 23 -62 37 -34 14 -64 31 -66
39 -3 10 4 8 24 -6 30 -22 95 -43 129 -43 23 0 -70 57 -125 76 -19 7 -36 19
-38 27 -3 14 1 14 30 4 18 -7 60 -29 92 -49z m-629 -56 c22 -15 45 -39 52 -52
15 -30 17 -116 3 -125 -11 -6 -88 39 -107 63 -20 25 -15 143 6 142 3 -1 24
-13 46 -28z m-1837 1 c-2 -9 -8 -18 -15 -20 -7 -3 -9 3 -6 16 6 25 26 28 21 4z
m777 -14 c-3 -4 -12 -6 -20 -3 -8 4 -13 10 -10 15 3 4 12 6 20 3 8 -4 13 -10
10 -15z m440 -9 c3 -5 -1 -10 -9 -10 -8 0 -18 5 -21 10 -3 6 1 10 9 10 8 0 18
-4 21 -10z m504 -45 c12 -54 12 -55 -21 -96 l-33 -41 -18 23 c-12 15 -15 25
-7 33 5 5 10 35 10 66 0 63 4 70 35 70 18 0 24 -9 34 -55z m-944 14 c12 -12
-6 -43 -28 -47 -19 -4 -41 33 -33 54 6 16 41 11 61 -7z m1314 -42 c1 -5 -5 -5
-11 0 -7 4 -21 6 -32 4 -11 -1 -16 2 -11 8 3 6 11 9 16 6 5 -4 12 2 16 11 6
16 7 16 14 -2 4 -10 8 -23 8 -27z m459 25 c3 -9 -2 -13 -14 -10 -9 1 -19 9
-22 16 -3 9 2 13 14 10 9 -1 19 -9 22 -16z m273 1 c12 -15 12 -16 -4 -10 -10
4 -28 7 -38 7 -11 0 -17 5 -14 10 10 16 41 12 56 -7z m-63 -45 c10 -21 10 -33
2 -49 l-12 -21 -12 24 c-7 13 -16 37 -20 52 -6 23 -4 27 11 24 10 -2 24 -15
31 -30z m-2337 -1 c-10 -9 -11 -8 -5 6 3 10 9 15 12 12 3 -3 0 -11 -7 -18z
m159 -5 c0 -9 -5 -24 -10 -32 -7 -11 -10 -5 -10 23 0 23 4 36 10 32 6 -3 10
-14 10 -23z m1510 -101 c0 -31 -17 -34 -51 -10 -34 24 -55 67 -40 82 5 5 7 17
4 26 -3 9 16 -5 41 -31 25 -26 46 -56 46 -67z m833 65 c13 -10 17 -27 16 -72
-1 -41 -3 -51 -8 -34 -4 15 -15 25 -26 26 -41 2 -45 4 -45 24 0 11 -4 20 -9
20 -5 0 -4 11 2 25 13 27 42 32 70 11z m-2398 -30 c55 -51 1 -102 -58 -55 -33
25 -33 32 -4 59 l22 21 -29 -11 c-26 -10 -28 -9 -16 5 17 21 51 13 85 -19z
m815 -15 c0 -11 -3 -11 -15 -1 -13 10 -21 10 -43 1 -32 -15 -24 -5 15 19 29
17 43 11 43 -19z m-1004 -6 c4 -9 3 -41 -1 -72 -6 -48 -9 -54 -18 -38 -5 11
-16 24 -24 28 -17 10 -17 31 2 67 17 33 32 38 41 15z m2720 -69 c-3 -14 -10
-26 -15 -26 -10 0 -22 91 -13 104 10 17 35 -51 28 -78z m-1766 44 c0 -5 -4
-10 -10 -10 -5 0 -10 5 -10 10 0 6 5 10 10 10 6 0 10 -4 10 -10z m1703 -17 c8
-16 17 -44 20 -63 l6 -35 -34 39 c-33 37 -43 65 -28 79 12 13 22 7 36 -20z
m-1990 -13 c-95 -19 -202 -106 -253 -206 -14 -27 -28 -51 -31 -54 -4 -3 -14
-21 -23 -40 -10 -22 -14 -26 -10 -10 11 48 86 175 127 218 52 53 147 102 196
101 l36 -1 -42 -8z m697 -15 c19 -14 42 -25 51 -25 9 0 28 -12 41 -27 22 -27
26 -28 123 -28 55 0 159 -2 230 -5 l130 -5 0 55 0 55 40 3 c21 2 59 -2 83 -9
43 -12 163 -91 171 -113 2 -5 24 -31 48 -57 34 -36 43 -53 38 -68 -4 -12 -2
-21 4 -21 6 0 27 -16 48 -35 21 -19 47 -41 58 -49 16 -12 20 -25 19 -73 0 -32
-3 -73 -7 -92 -4 -21 2 -56 15 -95 16 -50 28 -67 62 -91 22 -17 73 -60 111
-96 39 -37 89 -76 113 -88 23 -12 43 -27 44 -34 0 -6 2 -17 2 -24 1 -6 12 -23
24 -36 24 -25 112 -174 112 -189 0 -4 4 -16 9 -26 5 -9 16 -37 25 -62 9 -25
25 -56 36 -70 l20 -25 0 53 c0 45 -3 52 -17 50 -14 -2 -19 5 -21 30 -2 17 1
32 5 32 5 0 10 14 11 32 3 41 10 47 27 25 11 -16 13 -10 9 40 -4 43 -1 63 11
77 12 16 18 17 27 8 20 -20 25 -14 32 36 8 59 16 70 31 41 11 -20 13 -20 48
21 39 46 62 48 73 5 3 -14 10 -25 14 -25 18 0 20 -41 4 -72 -11 -22 -13 -33
-5 -36 18 -6 13 -40 -9 -52 -23 -12 -27 -30 -6 -30 38 0 27 -44 -17 -66 l-30
-16 25 -16 c26 -18 27 -42 2 -42 -23 0 -28 -30 -8 -45 18 -13 18 -14 1 -33
-12 -13 -15 -22 -8 -27 21 -12 11 -33 -23 -49 -19 -9 -44 -28 -54 -41 -26 -33
-34 -32 -16 3 7 15 14 36 13 47 0 18 -1 18 -9 -2 -14 -35 -22 -27 -14 15 12
68 -12 20 -34 -68 -12 -47 -24 -95 -28 -107 -5 -17 -2 -23 10 -23 21 0 20 -21
-1 -58 -21 -37 -12 -62 25 -62 67 0 194 -103 163 -133 -10 -9 -14 -8 -23 6 -5
11 -33 30 -61 43 -28 13 -59 33 -68 46 -32 42 -28 13 5 -39 30 -47 34 -50 48
-36 21 21 62 0 55 -28 -3 -12 2 -20 17 -25 11 -4 22 -6 24 -5 2 1 13 -10 24
-24 19 -25 19 -27 3 -46 -10 -10 -16 -20 -14 -22 2 -2 16 -11 32 -20 34 -22
35 -37 0 -37 l-27 0 34 -29 c28 -24 33 -32 23 -42 -10 -10 -13 -10 -13 -1 0 7
-5 12 -10 12 -7 0 -7 -6 0 -19 12 -23 14 -121 2 -121 -11 0 -67 60 -81 87 -6
12 -11 35 -11 51 0 58 -60 198 -125 293 l-32 47 -27 -101 c-14 -56 -32 -107
-40 -112 -7 -6 -29 -45 -49 -88 -24 -53 -40 -76 -48 -71 -8 4 -9 3 -5 -5 14
-22 -85 -161 -199 -279 -103 -108 -174 -162 -350 -264 -137 -80 -294 -142
-472 -187 -148 -38 -346 -63 -381 -50 -14 6 -99 8 -196 6 -101 -3 -179 -1
-190 5 -10 5 -65 16 -122 24 -145 20 -469 127 -493 161 -3 5 -33 24 -66 43
-33 18 -71 42 -85 53 -14 10 -40 25 -57 32 -18 8 -54 33 -80 57 -27 24 -61 52
-78 63 -35 22 -165 145 -165 156 0 4 -23 38 -50 74 -46 61 -96 145 -86 145 2
0 18 -21 34 -47 49 -76 169 -184 182 -163 4 6 55 -35 122 -97 63 -59 141 -124
173 -143 32 -19 85 -53 119 -76 195 -130 293 -166 626 -234 139 -29 405 -37
537 -16 301 46 524 130 773 291 129 83 338 273 416 380 42 57 55 83 34 70 -6
-3 -10 -1 -10 5 0 7 7 9 16 6 11 -4 25 15 56 80 40 84 41 86 29 137 -6 28 -19
59 -28 70 -14 15 -15 20 -4 27 21 13 -59 49 -112 51 -25 1 -59 -4 -76 -11 -37
-15 -52 -6 -29 17 25 25 144 29 187 6 40 -21 39 -20 87 -148 7 -19 7 -19 12
-1 3 14 6 16 12 6 10 -17 37 103 45 205 7 84 -6 176 -41 290 -17 56 -19 58
-22 27 -2 -18 4 -54 13 -81 27 -83 37 -214 24 -323 -7 -54 -14 -96 -17 -94 -2
3 -3 50 -3 106 l1 101 -30 -23 c-22 -16 -33 -19 -38 -11 -5 8 -70 14 -192 19
-102 4 -223 12 -270 18 l-85 12 36 35 c20 19 55 40 77 47 23 7 43 20 47 31 8
26 -31 145 -70 216 -19 33 -56 85 -84 117 -49 54 -62 78 -42 78 15 0 99 -99
137 -162 33 -54 90 -206 89 -238 0 -8 -4 -21 -9 -28 -6 -10 -3 -13 10 -10 10
2 20 12 22 22 2 11 0 16 -6 12 -6 -4 -10 2 -9 13 0 10 14 27 29 36 34 20 35
29 3 107 -61 149 -209 343 -271 355 -6 1 -48 25 -95 54 -349 217 -895 306
-1274 207 -44 -11 -105 -26 -135 -34 -30 -7 -75 -18 -100 -24 -25 -6 -64 -16
-88 -21 -52 -11 -207 -96 -285 -156 -31 -25 -62 -43 -67 -41 -16 5 150 118
256 174 121 65 340 138 492 165 152 27 411 30 557 5 235 -40 430 -104 595
-198 156 -88 254 -161 310 -231 52 -66 135 -223 156 -297 10 -36 12 -39 13
-18 2 44 49 140 90 183 23 23 42 55 46 75 11 54 15 55 46 8 32 -48 34 -55 18
-95 -7 -19 -12 -24 -18 -14 -6 9 -24 -6 -64 -51 -86 -98 -97 -141 -42 -164 75
-31 156 -8 181 53 48 114 -46 299 -261 516 -188 190 -533 368 -882 456 -322
81 -696 73 -1003 -21 -184 -57 -446 -198 -626 -338 -125 -96 -290 -286 -270
-310 7 -8 20 -31 29 -51 9 -20 33 -51 53 -68 34 -30 37 -31 49 -14 8 10 9 20
4 21 -21 8 -7 22 21 22 36 0 39 -20 11 -57 -11 -13 -18 -31 -15 -39 2 -8 7
-22 10 -31 4 -13 17 6 45 61 53 106 122 201 159 219 40 20 38 8 -6 -34 -20
-18 -49 -53 -65 -76 -37 -53 -96 -205 -101 -258 -3 -37 -1 -40 29 -46 l32 -6
25 81 c29 91 102 210 176 286 55 57 164 130 193 130 20 0 19 -1 -4 -26 -13
-14 -42 -35 -64 -46 -158 -82 -347 -404 -280 -478 10 -11 23 -20 30 -20 15 0
95 -69 95 -81 0 -6 -4 -8 -9 -5 -5 3 -11 0 -14 -7 -3 -9 -48 -13 -173 -14 -98
-1 -156 2 -139 7 19 5 -19 8 -107 9 -75 0 -139 5 -142 9 -16 26 42 51 122 53
l57 2 -60 7 c-33 3 -73 15 -88 24 -31 21 -37 42 -7 26 10 -6 23 -9 27 -8 9 3
117 -29 144 -42 9 -5 49 -2 90 6 41 8 91 14 112 14 41 0 42 2 26 33 l-12 21
-8 -22 c-11 -28 -23 -28 -37 1 l-11 22 0 -22 c-1 -18 -7 -23 -28 -23 -16 0
-45 -5 -66 -11 -52 -14 -56 -6 -12 24 36 25 30 42 -10 26 -33 -13 -113 -10
-151 6 -47 19 -79 87 -69 148 8 49 46 155 77 212 14 27 16 36 6 27 -13 -11
-43 -67 -102 -192 l-16 -35 6 35 c22 118 186 351 348 492 82 72 268 198 356
243 30 15 50 33 53 47 7 27 85 81 144 98 22 7 53 23 68 36 16 13 36 24 45 24
10 0 34 7 53 15 52 22 94 20 102 -5 5 -15 15 -20 41 -20 19 0 34 5 34 11 0 5
4 8 10 4 5 -3 16 9 25 27 l16 33 -20 -25 c-31 -38 -25 -11 12 50 37 64 116
123 156 118 18 -2 26 -9 25 -20 -1 -12 5 -18 18 -18 15 0 19 5 15 20 -3 12 2
27 11 37 9 9 16 25 17 37 0 12 6 20 12 19 13 -3 52 26 82 60 8 9 16 17 16 17
1 0 16 -11 35 -25z m-1390 -82 c0 -18 -3 -33 -8 -33 -14 0 -45 69 -38 86 11
28 46 -12 46 -53z m-610 27 c12 -22 4 -64 -10 -55 -10 6 -18 75 -8 75 4 0 12
-9 18 -20z m2545 10 c3 -6 -1 -13 -10 -16 -19 -8 -30 0 -20 15 8 14 22 14 30
1z m732 -20 c13 -17 28 -28 33 -25 4 3 15 -6 24 -20 21 -31 20 -41 -1 -24 -15
13 -15 12 -4 -9 21 -40 7 -34 -49 20 -30 28 -49 53 -42 56 6 2 8 10 5 18 -9
23 7 16 34 -16z m143 -4 c0 -27 -15 -42 -25 -26 -8 13 3 50 16 50 5 0 9 -11 9
-24z m-2174 -28 c-32 -18 -87 -60 -121 -93 -41 -39 -59 -52 -50 -35 20 39 110
119 158 140 68 31 77 22 13 -12z m60 -39 c-37 -55 -40 -48 -8 17 16 34 28 49
30 39 2 -9 -8 -34 -22 -56z m-632 32 c10 -16 -4 -35 -44 -63 -22 -15 -56 -53
-77 -85 -20 -32 -39 -60 -40 -62 -2 -3 -17 8 -33 24 -33 31 -33 40 0 30 14 -5
20 -12 16 -23 -6 -17 12 4 61 71 43 59 94 117 104 117 4 0 10 -4 13 -9z m2719
-99 c9 -31 17 -65 17 -74 0 -16 4 -16 52 3 44 17 56 18 82 7 43 -18 94 -65
117 -109 37 -73 17 -192 -41 -244 -19 -17 -23 -17 -114 28 -102 50 -125 69
-154 131 -11 23 -29 50 -41 60 -29 27 -26 42 10 50 17 3 28 10 24 16 -3 6 7
18 23 27 l29 17 -23 70 c-28 82 -27 76 -11 76 6 0 20 -26 30 -58z m-3470 15
c3 -8 2 -19 -3 -26 -5 -9 -9 -4 -12 13 -5 27 6 36 15 13z m1334 -5 c9 7 2 -10
-16 -39 -37 -61 -110 -130 -146 -139 -31 -8 -55 10 -54 40 0 11 3 15 6 9 8
-21 27 -15 71 23 23 19 42 31 42 26 0 -6 -21 -29 -46 -51 -26 -23 -42 -41 -35
-41 14 0 136 111 136 125 1 23 18 59 23 47 3 -10 7 -10 19 0z m-166 -75 c-10
-9 -11 -8 -5 6 3 10 9 15 12 12 3 -3 0 -11 -7 -18z m-487 -45 c-6 -8 -63 32
-58 40 3 5 18 -2 33 -14 16 -13 27 -25 25 -26z m30 -57 c35 -36 4 -100 -46
-93 -26 3 -59 58 -51 87 6 24 75 28 97 6z m-906 -51 c-10 -9 -37 26 -32 40 5
14 9 12 20 -10 8 -15 13 -28 12 -30z m2492 7 c215 -33 385 -83 530 -155 150
-74 286 -156 343 -204 30 -26 76 -65 102 -87 76 -63 85 -73 85 -100 0 -14 -3
-25 -7 -25 -13 0 -68 74 -65 88 2 6 -1 13 -5 13 -72 10 -82 2 -33 -28 41 -24
39 -50 -5 -69 -56 -23 -91 -18 -132 20 -87 78 -327 202 -493 254 -184 58 -373
92 -545 99 -272 11 -474 -24 -749 -129 -74 -29 -190 -96 -315 -181 -75 -52
-100 -48 -115 16 -5 21 -12 27 -34 27 -15 0 -33 -5 -40 -12 -17 -17 -15 -1 4
31 9 15 75 68 148 118 245 170 494 275 761 322 151 27 396 27 565 2z m-2374
-68 c-14 -21 -26 -45 -26 -54 0 -9 -7 -22 -15 -29 -12 -10 -12 -4 4 31 26 62
55 110 59 99 2 -5 -8 -26 -22 -47z m-261 -13 c-18 -51 -39 -87 -29 -50 10 37
32 90 38 90 3 0 -1 -18 -9 -40z m186 -147 c-12 -20 -14 -14 -5 12 4 9 9 14 11
11 3 -2 0 -13 -6 -23z m-20 -50 c-12 -20 -14 -14 -5 12 4 9 9 14 11 11 3 -2 0
-13 -6 -23z m2412 -68 c123 -16 278 -52 342 -80 36 -15 38 -18 19 -25 -19 -8
-64 1 -304 57 -59 14 -119 18 -285 18 -218 0 -269 -7 -434 -56 -69 -21 -91
-23 -91 -11 0 13 58 38 144 62 172 48 406 62 609 35z m-2597 -90 c7 -18 6 -18
-9 -6 -11 8 -17 27 -16 50 l1 36 8 -30 c4 -16 11 -39 16 -50z m2719 16 c55
-11 112 -25 125 -30 28 -12 17 -11 -160 10 -52 6 -198 11 -325 12 -199 0 -243
-3 -329 -21 -110 -24 -118 -25 -96 -13 21 12 182 50 261 61 109 15 410 4 524
-19z m-2635 14 c0 -4 -7 -19 -15 -35 -22 -42 -38 -37 -18 5 14 30 33 47 33 30z
m493 -69 c22 8 39 -21 35 -61 l-3 -37 -25 24 c-14 13 -31 33 -38 44 -11 17
-12 16 -8 -11 2 -16 12 -65 21 -107 11 -52 14 -82 7 -94 -6 -12 -5 -27 3 -48
26 -64 25 -79 -2 -31 -23 39 -34 49 -51 48 -16 -2 -26 5 -34 22 -15 33 -4 41
27 21 51 -34 44 -10 -10 31 -65 51 -76 81 -20 57 31 -13 50 -5 25 11 -6 4 -8
10 -5 14 2 5 -9 27 -25 50 -36 50 -37 55 -5 49 22 -5 25 -2 25 23 0 37 20 43
47 13 12 -13 28 -21 36 -18z m-356 -8 c-3 -8 -6 -5 -6 6 -1 11 2 17 5 13 3 -3
4 -12 1 -19z m933 -12 c0 -12 -41 -46 -55 -46 -13 0 -3 32 15 50 21 21 40 19
40 -4z m1274 -57 c-2 -13 7 -55 20 -94 19 -56 25 -66 31 -50 4 11 23 53 41 93
18 39 28 72 23 72 -5 0 -9 5 -9 10 0 17 174 11 304 -9 66 -11 142 -23 169 -26
26 -3 47 -10 47 -14 0 -4 -44 -2 -97 5 -54 7 -107 13 -118 12 -34 -1 108 -27
152 -28 l43 0 -6 -47 c-3 -27 -7 -63 -10 -82 -5 -33 -6 -33 -20 -12 -18 25
-65 51 -92 51 -22 0 -32 -25 -32 -82 l0 -38 56 0 c41 0 54 -3 50 -12 -3 -7 -9
-20 -12 -29 -4 -13 -16 -16 -52 -13 -52 4 -47 -1 11 -11 20 -3 37 -11 37 -16
0 -7 -15 -8 -41 -4 -49 9 -59 -1 -59 -62 0 -40 1 -42 36 -49 19 -3 52 -4 72
-1 l37 4 -3 -71 -2 -71 16 40 c9 22 21 57 27 78 6 20 14 37 17 37 4 0 15 -16
26 -36 31 -59 125 -95 154 -59 20 24 -1 58 -64 107 -30 23 -53 44 -51 46 7 7
92 -57 123 -93 18 -20 32 -32 32 -27 0 20 -45 64 -103 104 -90 60 -115 85
-133 140 -46 140 88 258 233 204 21 -8 47 -17 58 -21 19 -7 19 -7 1 -14 -16
-6 -17 -9 -4 -22 10 -9 12 -21 7 -34 -4 -11 -8 -46 -8 -77 -1 -65 -16 -77 -27
-22 -4 20 -10 31 -14 25 -4 -7 -11 -2 -19 13 -23 42 -81 54 -103 22 -11 -16
-10 -64 2 -86 6 -11 41 -37 78 -59 48 -28 74 -51 90 -79 42 -75 22 -184 -42
-223 -48 -29 -93 -24 -179 21 -43 23 -78 36 -82 30 -3 -5 25 -25 62 -45 37
-20 57 -33 43 -29 -14 4 -46 17 -72 30 -26 13 -54 24 -62 24 -8 0 -30 9 -48
20 -54 31 -187 58 -299 59 l-46 1 -7 103 c-4 56 -9 122 -13 146 l-6 44 -48
-138 c-27 -76 -51 -140 -53 -143 -6 -6 -82 146 -107 216 -12 31 -25 61 -29 65
-4 4 -8 -51 -9 -124 -1 -72 -4 -135 -7 -140 -3 -5 -35 -9 -72 -9 -37 -1 -86
-4 -108 -9 l-42 -8 -11 54 c-15 63 -36 73 -103 51 -49 -17 -68 -44 -68 -101 0
-36 -2 -38 -56 -62 -31 -14 -63 -25 -71 -25 -7 0 -30 -8 -51 -19 -64 -32 -90
-33 -29 -1 31 17 57 32 57 35 0 2 -25 -7 -56 -21 -71 -31 -132 -40 -177 -25
-35 12 -107 80 -107 103 0 6 -3 8 -6 5 -4 -4 1 -18 10 -33 10 -14 15 -28 12
-31 -10 -10 -45 62 -52 105 -10 66 1 170 24 236 51 141 148 216 279 216 41 0
76 -5 87 -13 17 -12 17 -16 -3 -75 -12 -34 -21 -70 -21 -81 0 -11 -4 -23 -10
-26 -5 -3 -10 2 -10 12 0 10 -7 29 -16 41 -8 12 -13 26 -10 30 2 4 -15 7 -39
7 -33 0 -52 -7 -81 -30 -42 -35 -75 -90 -67 -112 4 -10 11 -2 24 24 22 48 46
76 84 99 25 15 24 12 -11 -22 -59 -56 -77 -111 -71 -215 9 -145 16 -161 69
-141 17 6 35 9 40 6 5 -3 8 26 6 68 -3 63 -5 73 -20 70 -26 -4 -22 23 6 46 25
19 142 50 152 39 3 -3 1 -29 -5 -57 -13 -60 -14 -199 -2 -218 19 -31 130 262
115 303 -5 11 -3 16 2 12 11 -6 54 159 54 206 0 22 4 27 24 27 13 0 26 4 28 9
2 4 14 12 27 16 17 5 21 4 16 -5 -5 -9 -1 -10 16 -5 13 4 26 11 29 16 13 20
28 -11 33 -71 l7 -65 -19 55 c-23 66 -27 40 -6 -39 18 -71 91 -261 105 -275 7
-7 10 9 11 50 1 41 3 52 8 34 8 -26 21 112 21 216 0 63 7 84 29 85 13 0 14 2
1 7 -9 3 8 11 40 17 63 12 80 4 74 -36z m-1216 29 c-3 -7 -13 -13 -23 -13 -10
0 -20 6 -22 13 -3 7 5 12 22 12 17 0 25 -5 23 -12z m-537 -43 c24 -8 57 -67
40 -73 -6 -2 -11 -12 -11 -22 0 -13 5 -17 19 -13 21 5 30 -6 47 -54 10 -28 9
-32 -10 -37 -44 -11 -61 -1 -58 33 3 25 0 30 -12 25 -9 -3 -16 -10 -16 -15 0
-5 -10 -9 -21 -9 -20 0 -21 4 -15 41 4 27 2 46 -6 56 -15 18 -12 81 5 102 10
12 12 11 15 -7 2 -12 12 -24 23 -27z m1819 -40 c-6 -19 -16 -33 -21 -30 -15
10 -10 63 9 81 16 16 17 16 20 1 2 -10 -2 -33 -8 -52z m-2459 15 c6 0 7 -5 3
-12 -10 -17 -34 20 -26 40 6 14 7 13 10 -5 2 -13 8 -23 13 -23z m3745 -24 c-7
-29 -27 -34 -47 -10 -12 14 -14 14 -26 -2 -12 -16 -14 -15 -32 7 -20 24 -20
24 -21 2 0 -16 12 -27 48 -44 34 -17 42 -25 29 -27 -33 -7 -87 8 -87 23 0 9
-10 15 -22 15 -42 0 -68 12 -68 31 0 16 2 17 28 3 41 -21 60 -18 34 6 -12 12
-22 22 -22 23 0 5 121 0 126 -6 4 -4 14 3 22 14 13 19 16 19 30 6 9 -10 12
-24 8 -41z m-2728 7 c-4 -33 -24 -41 -33 -14 -8 25 1 41 21 41 11 0 14 -8 12
-27z m56 8 c3 -5 -1 -15 -10 -22 -13 -10 -17 -10 -24 1 -5 8 -6 18 -4 22 7 11
31 10 38 -1z m-1015 -66 c-11 -63 -10 -67 39 -83 36 -12 33 -16 50 58 10 43
11 43 5 -18 -6 -72 -3 -78 71 -127 76 -51 117 -124 115 -205 -1 -21 -2 -20
-10 9 -6 18 -21 51 -35 72 -13 21 -24 43 -24 48 0 30 -156 131 -255 165 -19 7
-19 8 -2 17 10 6 17 22 17 39 0 24 30 94 37 86 2 -1 -2 -29 -8 -61z m1111 31
c0 -8 -89 -56 -102 -55 -10 0 -10 2 0 6 6 2 10 9 7 14 -4 5 2 6 11 2 12 -5 15
-3 9 6 -4 7 -3 16 3 20 11 7 72 12 72 7z m-1264 -22 c-4 -9 -1 -23 5 -30 13
-15 9 -17 -15 -8 -19 7 -21 40 -3 47 19 8 20 8 13 -9z m1068 -15 c-4 -8 0 -9
15 -4 25 8 25 7 6 -39 -9 -20 -20 -34 -25 -31 -12 8 -10 85 2 85 5 0 6 -5 2
-11z m2814 -14 c17 -36 15 -49 -8 -70 -24 -22 -24 -21 -43 32 -10 29 -11 45
-4 52 19 19 43 12 55 -14z m-2678 -35 c0 -13 -7 -20 -20 -20 -25 0 -26 16 -2
29 23 14 22 14 22 -9z m2568 5 c2 -2 2 -11 -1 -20 -12 -30 -67 -11 -67 23 0
11 8 13 32 8 17 -3 34 -8 36 -11z m22 -70 c11 -13 9 -24 -8 -63 -11 -26 -23
-54 -26 -62 -2 -8 -5 0 -5 18 -1 18 -8 49 -16 69 -8 19 -15 39 -15 44 0 15 57
10 70 -6z m1050 0 c21 -11 30 -23 30 -40 0 -31 -3 -31 -34 0 -28 28 -58 32
-76 10 -18 -21 4 -45 42 -45 19 0 28 -4 26 -12 -7 -20 -44 -21 -71 -3 -20 13
-24 21 -18 43 4 14 20 34 37 43 36 22 30 22 64 4z m-2975 -24 c-6 -5 -23 -12
-40 -16 l-30 -6 30 15 c35 17 53 20 40 7z m-1715 -11 c0 -5 -4 -10 -10 -10 -5
0 -10 5 -10 10 0 6 5 10 10 10 6 0 10 -4 10 -10z m74 -11 c-31 -12 -40 -9 -20
6 10 8 24 11 29 8 6 -4 2 -10 -9 -14z m4716 1 c0 -5 6 -10 14 -10 19 0 36 -23
28 -37 -5 -8 -13 -9 -22 -3 -8 6 -25 10 -37 10 -25 0 -37 15 -29 35 6 17 46
21 46 5z m-4943 -42 c-3 -8 -6 -5 -6 6 -1 11 2 17 5 13 3 -3 4 -12 1 -19z
m3989 8 c27 -20 13 -29 -19 -13 -15 8 -24 17 -20 20 9 10 17 9 39 -7z m682
-18 c-5 -32 -28 -35 -28 -4 0 17 5 26 16 26 10 0 14 -7 12 -22z m-4428 -24 c0
-8 16 -24 35 -36 46 -27 37 -36 -11 -12 -28 14 -39 26 -41 47 -3 18 0 26 7 22
5 -3 10 -13 10 -21z m65 17 c7 -12 -12 -24 -25 -16 -11 7 -4 25 10 25 5 0 11
-4 15 -9z m4315 -31 c-15 -28 -20 -23 -13 13 4 18 9 25 15 19 6 -6 6 -18 -2
-32z m-45 20 c-3 -5 -11 -10 -16 -10 -6 0 -7 5 -4 10 3 6 11 10 16 10 6 0 7
-4 4 -10z m397 -15 c0 -5 -5 -11 -11 -13 -6 -2 -11 4 -11 13 0 9 5 15 11 13 6
-2 11 -8 11 -13z m-42 -10 c10 -12 10 -15 -3 -15 -8 0 -20 7 -27 15 -10 12
-10 15 3 15 8 0 20 -7 27 -15z m-4687 -44 c73 -51 106 -85 122 -123 20 -50 5
-48 -29 2 -26 40 -99 115 -133 137 -10 6 -14 12 -10 12 5 1 27 -12 50 -28z
m3713 -3 c7 -24 -11 -39 -41 -36 -26 4 -32 38 -10 54 21 16 42 8 51 -18z
m-3737 -46 c19 -9 41 -28 50 -41 15 -23 12 -22 -28 7 -24 18 -51 32 -60 32
-10 0 -4 -7 14 -19 17 -10 38 -27 47 -37 22 -25 35 -89 28 -138 -5 -35 -8 -39
-39 -42 -18 -2 -61 0 -94 6 -68 11 -83 23 -117 99 l-20 44 44 43 c24 23 53 47
63 53 27 16 74 13 112 -7z m2281 -59 c0 -9 16 -13 54 -13 44 0 60 -5 85 -26
22 -18 57 -31 125 -45 100 -20 216 -65 332 -130 83 -45 137 -51 199 -19 30 15
42 17 53 8 32 -27 -15 -128 -59 -128 -10 0 -22 -6 -26 -13 -10 -17 -89 -38
-128 -34 -24 2 -31 8 -35 32 l-5 30 -90 -2 c-50 -1 -93 -2 -97 -3 -5 0 -8 -8
-8 -17 0 -28 -41 -103 -56 -103 -18 0 -18 15 1 43 12 18 12 27 2 47 -12 25
-13 25 -170 28 -187 3 -234 -6 -239 -46 -2 -16 -10 -28 -20 -30 -13 -2 -17 5
-20 35 l-3 38 -50 3 c-27 1 -61 5 -74 8 l-24 5 34 35 33 34 31 -30 c24 -23 40
-30 72 -30 25 0 46 6 54 16 11 14 13 14 21 0 10 -18 118 -23 118 -6 0 7 6 7
20 0 22 -12 47 -3 70 24 10 13 10 20 -4 41 -9 13 -16 27 -16 30 0 3 78 6 173
7 138 1 157 3 97 8 -41 4 -121 8 -177 9 l-102 1 6 33 c4 28 1 37 -22 55 -22
18 -41 22 -97 22 -38 0 -67 -4 -64 -9 3 -5 -11 0 -31 10 -54 28 -81 24 -119
-16 -25 -27 -41 -35 -68 -35 -25 0 -36 -4 -36 -15 0 -10 11 -15 35 -15 28 0
35 -4 35 -20 0 -16 -7 -20 -35 -20 -34 0 -35 -1 -35 -40 0 -33 -3 -40 -20 -40
-19 0 -20 7 -20 95 l0 95 65 0 c37 0 65 4 65 10 0 6 -33 10 -77 11 l-78 1 100
17 c119 21 173 44 187 80 9 25 10 25 24 7 8 -11 14 -26 14 -33z m1818 25 c-5
-13 -63 -31 -80 -26 -6 2 -3 11 6 21 20 20 80 24 74 5z m-8 -38 c0 -5 -5 -10
-11 -10 -6 0 -18 -7 -27 -16 -12 -13 -17 -14 -20 -4 -5 14 24 40 45 40 7 0 13
-4 13 -10z m-2183 -46 l43 -17 0 -58 0 -59 -144 0 c-86 0 -147 -4 -151 -10 -4
-6 47 -10 146 -10 l151 0 -6 -54 c-7 -54 -7 -55 21 -59 15 -3 -12 -5 -62 -4
-87 0 -90 -1 -105 -27 -8 -15 -26 -29 -39 -33 -23 -6 -36 4 -59 44 -8 12 -93
17 -197 10 -52 -4 -63 -1 -81 18 l-20 22 120 52 c142 62 260 128 301 171 34
35 28 34 82 14z m326 -36 c36 -19 46 -40 47 -96 0 -44 -4 -57 -26 -77 -14 -13
-35 -27 -45 -30 -30 -10 -82 26 -98 68 -12 33 -12 42 3 81 23 59 70 81 119 54z
m187 -18 c24 -24 25 -38 5 -68 -14 -19 -14 -24 0 -51 33 -65 4 -85 -36 -24
-34 52 -49 54 -49 4 0 -36 -3 -41 -22 -41 -22 0 -23 3 -23 100 l0 100 53 0
c39 0 57 -5 72 -20z m617 -6 c-3 -3 -12 -4 -19 -1 -8 3 -5 6 6 6 11 1 17 -2
13 -5z m310 -34 c23 -12 70 -22 120 -26 78 -6 81 -8 57 -20 -43 -22 -106 -17
-165 14 -29 15 -54 33 -57 40 -5 16 1 15 45 -8z m-2237 -40 c-20 -13 -33 -13
-25 0 3 6 14 10 23 10 15 0 15 -2 2 -10z m2729 -35 c11 -19 19 -35 18 -35 -2
0 -18 16 -37 35 -24 25 -29 35 -18 35 9 0 25 -16 37 -35z m-2947 -3 c21 -21 0
-25 -42 -8 -54 21 -87 20 -134 -5 -21 -11 -35 -15 -31 -9 23 37 176 53 207 22z
m3611 -67 c75 -22 145 -19 199 8 55 28 54 9 -1 -21 -30 -17 -55 -22 -107 -22
-79 1 -129 16 -179 54 -46 36 -45 52 1 21 21 -14 60 -32 87 -40z m-3515 32 c6
-7 8 -24 5 -36 -4 -18 -2 -22 8 -19 8 2 15 17 17 32 3 27 4 27 23 10 26 -24
24 -43 -7 -54 -28 -11 -85 -10 -79 1 3 3 -4 14 -15 24 -26 23 -26 38 0 30 11
-4 20 -3 19 2 -4 26 12 31 29 10z m2489 -32 c-1 -34 -20 -54 -33 -34 -7 12 15
69 26 69 5 0 8 -16 7 -35z m104 16 c-12 -22 -73 -53 -84 -42 -16 16 5 41 33
41 16 0 32 5 35 10 12 19 26 11 16 -9z m-3507 -72 c-44 -45 -48 -53 -52 -106
-7 -108 51 -448 80 -461 4 -2 4 -10 1 -18 -3 -8 0 -20 6 -28 7 -8 11 -18 10
-22 -4 -25 3 -44 17 -44 10 0 14 -7 12 -23 -3 -27 37 -87 58 -87 8 0 17 -8 21
-17 3 -10 13 -26 21 -35 12 -14 12 -18 2 -18 -11 0 -11 -3 -2 -12 13 -13 16
-39 5 -37 -27 4 -25 -2 14 -45 6 -7 9 -22 7 -33 -7 -27 56 -151 101 -198 19
-21 35 -40 35 -42 0 -2 11 -19 25 -37 14 -18 25 -36 25 -40 0 -11 80 -116 88
-116 4 0 13 -10 21 -22 25 -43 -121 107 -173 177 -76 102 -172 258 -206 334
-40 92 -116 304 -134 376 -31 122 -55 286 -57 388 l-3 104 53 61 c30 34 58 59
63 56 6 -4 -12 -28 -38 -55z m3347 38 c-10 -9 -11 -8 -5 6 3 10 9 15 12 12 3
-3 0 -11 -7 -18z m303 1 c18 -26 13 -38 -17 -38 -34 0 -50 15 -42 39 8 27 40
27 59 -1z m-2909 -6 c0 -18 -20 -15 -23 4 -3 10 1 15 10 12 7 -3 13 -10 13
-16z m120 -10 c-3 -3 -11 0 -18 7 -9 10 -8 11 6 5 10 -3 15 -9 12 -12z m214
-131 c38 -59 153 -169 219 -211 26 -16 40 -30 31 -30 -28 0 -136 76 -200 142
-66 67 -109 144 -108 193 0 30 0 30 13 -7 7 -20 28 -60 45 -87z m577 6 l31
-99 34 96 34 96 42 6 c75 11 73 16 73 -183 0 -174 5 -223 20 -223 13 0 23 342
10 374 -6 16 -9 29 -8 30 2 1 47 0 101 -2 l97 -4 0 -49 c0 -49 -7 -58 -27 -38
-6 6 -28 9 -49 7 -39 -3 -39 -3 -42 -51 l-3 -49 46 3 47 3 3 -46 c3 -46 3 -47
-23 -37 -15 6 -37 8 -49 4 -19 -4 -23 -12 -23 -45 l0 -40 59 0 60 0 3 -32 c2
-18 8 -32 13 -31 14 2 66 193 60 221 -3 12 2 48 11 80 10 31 17 64 16 73 0 13
13 18 55 23 63 7 73 1 73 -48 0 -27 77 -326 87 -336 8 -8 -4 343 -12 368 -7
21 -6 22 65 22 70 0 72 -1 65 -22 -12 -39 -19 -308 -8 -308 6 0 25 -3 43 -7
21 -4 31 -3 27 4 -4 6 5 15 19 22 l26 11 -4 -51 c-2 -35 1 -54 9 -56 21 -8 25
39 16 225 l-8 182 68 0 c64 0 67 -1 57 -19 -6 -11 -10 -85 -9 -173 0 -84 3
-147 6 -140 3 7 22 12 46 12 25 0 56 9 75 20 28 17 33 25 28 45 -5 18 -2 25 8
25 8 0 17 -6 19 -12 4 -10 8 -9 16 2 16 24 23 5 16 -44 -4 -25 -12 -44 -19
-43 -7 1 -10 -15 -8 -48 l3 -50 -319 0 -320 0 -16 51 c-16 50 -18 52 -57 56
-22 2 -43 1 -48 -2 -11 -7 -31 -69 -31 -95 0 -21 -3 -21 -57 -13 -69 9 -254 8
-301 -3 l-33 -7 3 124 c2 68 0 124 -3 124 -3 0 -29 -61 -59 -135 -54 -137 -77
-177 -40 -69 17 48 18 64 9 87 -13 31 -64 63 -74 47 -3 -6 3 -44 15 -86 38
-140 9 -86 -45 84 -9 28 -20 52 -25 52 -10 0 -20 -60 -24 -150 l-3 -64 -42 -3
-42 -3 21 30 c27 38 41 125 36 225 -2 51 -1 62 3 30 l6 -50 8 64 c10 91 9 110
-4 91 -9 -12 -10 -12 -5 3 3 10 6 22 6 27 0 11 35 18 80 16 l34 -1 32 -98z
m1934 38 c24 -24 53 -45 64 -47 16 -2 22 -11 24 -37 2 -19 -1 -31 -6 -27 -12
7 -29 -12 -34 -39 -3 -16 -9 -11 -30 26 -15 25 -43 65 -63 88 -68 82 -30 113
45 36z m-2619 -25 c62 -117 175 -229 340 -335 235 -153 423 -216 729 -246 311
-30 633 27 890 156 91 46 221 134 284 193 52 49 146 177 170 230 20 45 36 55
36 22 0 -45 -121 -231 -194 -299 -14 -14 -26 -30 -26 -38 0 -7 -19 -25 -42
-40 -24 -15 -67 -42 -96 -61 -85 -54 -247 -127 -372 -166 -172 -55 -276 -70
-485 -70 -246 0 -393 26 -595 105 -140 54 -340 162 -381 206 -19 20 -27 32
-19 28 8 -5 -12 15 -45 45 -143 128 -245 259 -245 314 0 32 19 15 51 -44z
m-161 31 c0 -21 -57 -81 -76 -81 -6 0 -17 -7 -24 -15 -26 -32 -22 -4 5 32 16
21 22 32 15 26 -8 -7 -18 -13 -24 -13 -5 0 -1 6 9 14 11 8 28 12 37 11 11 -2
25 6 34 21 20 29 24 30 24 5z m2479 -79 c-31 -63 -138 -168 -227 -221 -40 -24
-75 -41 -78 -38 -3 3 27 26 67 52 92 60 177 145 220 220 38 67 52 58 18 -13z
m-2688 -72 c13 -22 15 -28 4 -15 -23 27 -65 111 -64 127 0 7 9 -7 20 -32 11
-24 29 -60 40 -80z m12 48 c6 -22 5 -22 -8 -4 -17 22 -20 40 -6 32 5 -3 11
-16 14 -28z m3413 -53 c5 -20 3 -24 -10 -19 -8 3 -18 16 -21 27 -18 63 -19 61
4 38 11 -11 23 -32 27 -46z m-2996 -40 c47 -49 65 -72 40 -49 -25 22 -59 48
-76 58 -28 17 -64 62 -64 81 0 14 17 -2 100 -90z m2355 44 c-25 -47 -83 -118
-135 -164 -37 -34 -34 -29 21 35 35 41 77 97 93 123 31 54 47 58 21 6z m-2600
-9 c29 -47 32 -63 8 -58 -10 2 -17 9 -16 15 2 7 -4 28 -12 47 -20 47 -11 46
20 -4z m2705 19 c0 -5 -7 -9 -15 -9 -8 0 -15 7 -15 15 0 9 6 12 15 9 8 -4 15
-10 15 -15z m-2603 5 c-3 -3 -12 -4 -19 -1 -8 3 -5 6 6 6 11 1 17 -2 13 -5z
m2701 -61 c-1 -26 -6 -40 -12 -36 -6 4 -21 13 -33 21 l-22 14 26 34 c32 39 44
30 41 -33z m-2923 -44 c20 -28 32 -48 26 -45 -12 8 -74 96 -67 96 2 0 21 -23
41 -51z m2835 41 c-20 -13 -50 -13 -50 0 0 6 15 10 33 10 24 0 28 -3 17 -10z
m-2613 -6 c-3 -3 -12 -4 -19 -1 -8 3 -5 6 6 6 11 1 17 -2 13 -5z m-67 -39 c18
-22 5 -30 -19 -13 -12 8 -18 18 -14 21 10 11 19 8 33 -8z m2644 0 c11 -11 21
-13 40 -5 24 9 25 8 14 -10 -14 -22 -43 -27 -53 -9 -4 6 -19 7 -36 4 -49 -11
-36 15 18 34 1 1 8 -6 17 -14z m-2574 -20 c8 -9 8 -15 2 -15 -18 0 -42 12 -42
21 0 14 26 10 40 -6z m2690 11 c0 -2 -7 -9 -15 -16 -12 -10 -15 -10 -15 4 0 9
7 16 15 16 8 0 15 -2 15 -4z m-2710 -49 c0 -7 -6 -22 -14 -33 -14 -18 -15 -18
-21 -1 -7 17 10 47 26 47 5 0 9 -6 9 -13z m2533 -6 c14 -14 -5 -41 -28 -41
-19 0 -22 -4 -18 -21 3 -11 11 -23 17 -25 7 -3 12 -21 12 -42 1 -20 -1 -29 -3
-20 -7 27 -39 5 -46 -30 -10 -47 -186 -171 -359 -252 -407 -189 -886 -217
-1343 -78 -113 34 -304 121 -348 158 -31 26 -85 62 -118 77 -47 22 -106 103
-64 87 8 -4 15 -12 15 -20 0 -23 30 -16 72 17 l40 32 36 -17 c48 -23 33 -9
-52 47 -76 51 -102 53 -46 5 l35 -30 -32 5 c-24 5 -35 2 -42 -11 -12 -20 -13
-13 -11 44 1 37 -3 45 -37 71 -21 16 -47 35 -58 41 -18 10 -15 11 18 12 32 0
48 -8 87 -43 76 -66 326 -217 405 -244 125 -43 378 -103 480 -114 138 -16 414
-5 530 20 200 44 441 149 624 272 52 35 113 76 135 92 40 26 77 29 99 8z m137
9 c0 -5 -4 -10 -9 -10 -6 0 -13 5 -16 10 -3 6 1 10 9 10 9 0 16 -4 16 -10z
m-3896 -16 c3 -8 2 -12 -4 -9 -6 3 -10 10 -10 16 0 14 7 11 14 -7z m1077 -1
c13 -16 12 -17 -3 -4 -10 7 -18 15 -18 17 0 8 8 3 21 -13z m271 10 c-10 -4
-10 -8 0 -21 11 -13 11 -14 -2 -10 -23 7 -25 38 -3 37 11 0 13 -3 5 -6z m2503
-23 c0 -27 -22 -39 -31 -16 -8 22 3 49 19 43 6 -2 12 -14 12 -27z m-2555 10
c0 -5 -4 -10 -9 -10 -6 0 -13 5 -16 10 -3 6 1 10 9 10 9 0 16 -4 16 -10z
m3181 -27 c18 -18 31 -134 17 -149 -4 -3 -21 5 -38 20 -17 14 -35 26 -39 26
-19 0 -61 51 -61 74 0 52 80 71 121 29z m-3809 0 c10 -9 18 -28 17 -42 0 -14
-3 -20 -6 -13 -2 6 -21 12 -41 12 -45 0 -65 11 -56 33 5 14 19 20 58 26 5 0
18 -6 28 -16z m753 -2 c3 -6 -1 -13 -8 -18 -8 -4 -21 -21 -30 -38 -13 -25 -17
-27 -22 -13 -4 10 2 29 16 47 24 32 34 37 44 22z m2373 -44 c2 -10 -3 -17 -12
-17 -10 0 -16 9 -16 21 0 24 23 21 28 -4z m-3665 -87 c3 -11 1 -20 -4 -20 -4
0 -13 9 -19 20 -8 16 -8 20 3 20 8 0 17 -9 20 -20z m1412 -10 c-3 -5 -10 -10
-16 -10 -5 0 -9 5 -9 10 0 6 7 10 16 10 8 0 12 -4 9 -10z m730 -37 c108 -22
457 -23 563 -1 40 8 69 11 64 6 -41 -41 -440 -56 -612 -24 -90 16 -146 35
-110 36 8 0 51 -8 95 -17z m2600 -63 c0 -8 -7 -16 -15 -17 -22 -4 -44 13 -35
26 10 17 50 9 50 -9z m-4425 0 c0 -5 -4 -10 -9 -10 -6 0 -13 5 -16 10 -3 6 1
10 9 10 9 0 16 -4 16 -10z m-355 -282 c56 -140 180 -363 232 -415 10 -10 36
-48 58 -85 24 -40 48 -69 60 -71 18 -3 18 -4 3 -11 -21 -10 -58 29 -103 109
-16 29 -42 65 -57 79 -65 66 -209 365 -257 537 -28 102 -26 123 4 27 13 -42
40 -119 60 -170z m4944 221 c-16 -10 -23 -4 -14 10 3 6 11 8 17 5 6 -4 5 -9
-3 -15z m-4072 -40 c153 -49 233 -96 233 -139 0 -28 -56 -70 -94 -70 -45 0
-188 48 -206 69 -8 10 -29 23 -46 30 -38 15 -70 76 -60 115 9 36 50 34 173 -5z
m-772 11 c-3 -5 -11 -10 -16 -10 -6 0 -7 5 -4 10 3 6 11 10 16 10 6 0 7 -4 4
-10z m4682 -6 c3 -8 1 -20 -6 -27 -8 -8 -11 -8 -11 2 0 10 -3 11 -14 2 -11 -9
-16 -9 -22 0 -4 7 1 18 11 26 24 17 34 17 42 -3z m-4639 -13 c3 -8 -1 -12 -9
-9 -7 2 -15 10 -17 17 -3 8 1 12 9 9 7 -2 15 -10 17 -17z m4033 9 c24 -13 24
-41 0 -88 -36 -71 -94 -100 -216 -109 -93 -6 -148 10 -167 51 -15 33 5 57 77
91 113 53 259 79 306 55z m-4011 -112 c0 -4 -4 -8 -10 -8 -5 0 -10 4 -10 9 0
5 -3 18 -6 28 -5 16 -4 16 10 -1 9 -11 16 -23 16 -28z m4671 -159 c-28 -56
-51 -108 -51 -115 0 -8 -20 -43 -45 -79 -25 -37 -48 -77 -51 -91 -3 -13 -10
-24 -14 -24 -4 0 -21 -23 -39 -51 -17 -28 -34 -49 -37 -46 -5 5 44 91 76 134
9 12 38 70 65 130 26 59 52 110 57 111 4 2 5 9 2 14 -4 7 -2 8 4 4 7 -4 14 4
18 20 8 29 55 106 62 100 2 -3 -19 -51 -47 -107z m-4635 59 c17 -8 36 -34 57
-78 17 -36 38 -70 46 -77 14 -11 12 -12 -11 -13 -23 0 -27 5 -33 41 -4 23 -16
50 -26 60 -10 10 -19 23 -19 29 0 16 -49 43 -70 37 -11 -3 -18 -1 -14 4 7 13
38 11 70 -3z m4507 1 c14 -6 30 -23 36 -36 15 -33 7 -42 -10 -11 -15 29 -28
38 -55 38 -36 0 -46 -22 -28 -59 15 -30 20 -33 54 -29 34 3 37 1 29 -15 -6 -9
-14 -15 -19 -12 -4 3 -20 1 -35 -5 -15 -6 -24 -6 -20 -1 3 5 1 12 -5 16 -5 3
-10 0 -11 -7 0 -7 -5 -1 -11 15 -5 15 -13 25 -18 22 -5 -3 -12 5 -16 17 -5 17
1 28 25 50 34 31 48 33 84 17z m191 -75 c4 -10 2 -13 -6 -8 -7 5 -9 2 -6 -8 4
-8 1 -15 -7 -15 -10 0 -11 6 -2 24 12 27 13 28 21 7z m-4791 -14 c3 -11 1 -18
-4 -14 -5 3 -9 12 -9 20 0 20 7 17 13 -6z m3293 -31 c8 -16 13 -47 13 -71 l-1
-43 -8 54 c-5 29 -18 68 -31 85 -15 21 -17 26 -5 17 9 -8 24 -27 32 -42z m-56
4 c0 -5 -26 -30 -57 -58 -48 -42 -54 -45 -35 -18 13 18 36 40 52 50 17 9 30
21 30 25 0 4 2 8 5 8 3 0 5 -3 5 -7z m-2291 -103 c1 -20 -1 -22 -9 -10 -5 8
-9 29 -9 45 0 26 2 27 9 10 5 -11 9 -31 9 -45z m3541 45 c0 -8 -9 -15 -20 -15
-20 0 -26 11 -13 23 12 13 33 7 33 -8z m-667 -37 c-5 -27 -23 -40 -23 -17 0
13 20 52 25 47 2 -1 1 -15 -2 -30z m-52 -2 c-17 -20 -51 -27 -51 -11 0 15 15
23 44 24 15 1 16 -2 7 -13z m-3598 -16 c-3 -11 -7 -20 -9 -20 -2 0 -4 9 -4 20
0 11 4 20 9 20 5 0 7 -9 4 -20z m713 5 c-17 -13 -18 -15 -3 -15 10 0 17 -8 17
-20 0 -23 -6 -24 -38 -7 l-22 13 20 22 c12 12 26 22 33 22 7 0 3 -7 -7 -15z
m1739 -2 c-45 -25 -95 -33 -110 -20 -10 9 1 14 49 23 86 16 95 16 61 -3z
m1875 -24 c0 -17 9 -44 21 -60 11 -16 18 -36 15 -44 -7 -20 -36 -7 -36 16 0
23 -8 24 -30 4 -9 -8 -34 -16 -56 -18 -35 -2 -39 0 -42 24 -4 31 22 99 37 99
6 0 11 -13 11 -30 0 -20 -5 -30 -15 -30 -17 0 -18 -2 -9 -24 8 -20 57 -21 74
-1 8 9 10 28 6 48 -3 18 -3 36 1 40 14 15 23 6 23 -24z m-596 -14 c65 -60 -10
-118 -92 -69 -53 31 -55 74 -4 74 15 0 34 5 42 10 21 14 24 13 54 -15z m-3624
-16 c0 -11 -4 -17 -10 -14 -5 3 -10 15 -10 26 0 11 5 17 10 14 6 -3 10 -15 10
-26z m-107 -15 c5 -30 -8 -20 -18 15 -4 15 -3 21 3 17 5 -3 12 -17 15 -32z
m787 6 c0 -5 -4 -10 -9 -10 -6 0 -13 5 -16 10 -3 6 1 10 9 10 9 0 16 -4 16
-10z m119 -16 c12 -15 21 -35 21 -45 0 -23 -37 -49 -59 -42 -25 9 -81 53 -81
64 0 12 60 49 82 49 9 0 26 -12 37 -26z m-935 -49 c-4 -8 -10 -12 -15 -9 -11
6 -2 24 11 24 5 0 7 -7 4 -15z m2246 8 c0 -5 -31 -50 -57 -82 -2 -3 -9 1 -16
8 -9 10 -8 14 6 22 9 6 17 15 17 21 0 6 8 17 18 24 19 15 32 18 32 7z m885
-44 c-21 -41 -91 -109 -111 -109 -10 0 2 14 29 35 25 19 55 50 67 70 27 43 36
46 15 4z m-845 8 c0 -2 -10 -12 -22 -23 l-23 -19 19 23 c18 21 26 27 26 19z
m790 -10 c0 -2 -15 -16 -32 -33 l-33 -29 29 33 c28 30 36 37 36 29z m1140 -15
c13 -10 21 -23 19 -29 -2 -6 -19 2 -39 18 -38 32 -19 42 20 11z m260 -12 c-6
-11 -13 -20 -16 -20 -2 0 0 9 6 20 6 11 13 20 16 20 2 0 0 -9 -6 -20z m-4260
0 c25 -13 31 -49 16 -93 -9 -28 -15 -34 -24 -25 -9 9 -7 17 9 34 26 28 18 58
-19 79 -15 8 -21 14 -14 15 7 0 22 -4 32 -10z m135 -48 c-7 -7 -55 39 -55 52
0 5 13 -3 30 -19 16 -16 28 -31 25 -33z m2540 -12 c-3 -5 -18 -9 -33 -9 l-27
1 30 8 c17 4 31 8 33 9 2 0 0 -3 -3 -9z m-585 -45 c75 -38 122 -86 159 -162
31 -63 33 -73 29 -148 -6 -106 -32 -149 -117 -194 -33 -17 -67 -31 -74 -31 -8
0 -26 -9 -40 -20 -28 -22 -36 -24 -57 -10 -12 8 -10 14 13 38 l28 29 -53 -4
c-65 -5 -113 17 -145 67 -12 19 -33 49 -46 65 -20 25 -57 96 -57 111 0 2 8 4
18 4 9 0 13 3 7 8 -6 4 -16 19 -23 33 -12 23 -12 31 2 57 18 36 20 46 6 37
-21 -13 -9 4 38 53 41 44 76 64 162 96 28 10 100 -4 150 -29z m1868 13 c25 2
41 -4 59 -22 14 -14 30 -23 35 -20 6 4 5 -3 -1 -14 -14 -26 -33 -39 -25 -18 9
22 -9 20 -31 -4 -27 -30 -35 -26 -88 36 -18 22 -13 59 6 47 6 -4 26 -6 45 -5z
m-3082 -74 c-6 -17 -36 -19 -36 -2 0 6 8 20 18 31 15 17 17 17 20 3 2 -10 1
-24 -2 -32z m-826 26 c0 -5 -4 -10 -10 -10 -5 0 -10 5 -10 10 0 6 5 10 10 10
6 0 10 -4 10 -10z m1475 -3 c11 -8 14 -16 8 -20 -6 -4 -18 2 -28 13 -21 23 -8
27 20 7z m1579 7 c20 -8 20 -28 1 -44 -13 -11 -20 -9 -40 10 l-24 22 6 -23 c6
-23 6 -23 -16 -9 -12 8 -22 20 -22 25 0 17 65 30 95 19z m-614 -25 c7 -11 9
-23 6 -26 -7 -7 -46 26 -46 39 0 17 30 7 40 -13z m1200 -19 c-17 -22 -37 -43
-43 -47 -6 -4 6 14 27 40 21 26 40 47 43 47 3 0 -10 -18 -27 -40z m-3502 10
c46 -28 40 -32 -13 -9 -25 11 -50 17 -57 13 -7 -4 -8 -3 -4 4 11 17 37 14 74
-8z m3707 0 c23 -26 4 -26 -26 0 -18 15 -20 19 -8 20 9 0 24 -9 34 -20z m-139
-22 c-27 -18 -51 -38 -53 -45 -2 -6 12 -16 31 -23 37 -12 49 -30 20 -30 -14 0
-15 -3 -3 -17 7 -10 10 -15 5 -11 -5 4 -17 3 -27 -3 -15 -7 -17 -6 -13 6 4 10
0 15 -14 15 -41 0 -66 -52 -43 -89 7 -11 11 -10 20 5 9 16 10 13 11 -18 0 -44
-11 -48 -34 -13 -22 33 -21 106 2 136 10 13 23 36 29 51 7 15 29 36 50 47 60
32 73 24 19 -11z m-3795 -80 c5 -10 6 -18 2 -18 -5 0 -17 16 -27 35 -11 19
-23 35 -27 35 -5 0 -13 10 -19 23 -12 24 56 -47 71 -75z m3912 22 c-7 -8 -33
32 -33 49 0 9 8 3 19 -14 10 -16 16 -32 14 -35z m77 36 c0 -2 -8 -10 -17 -17
-16 -13 -17 -12 -4 4 13 16 21 21 21 13z m-3050 -13 c0 -3 -7 -14 -15 -23 -24
-26 -2 -79 29 -73 13 3 47 -5 74 -18 52 -24 62 -41 62 -109 0 -49 -22 -53 -58
-10 -36 43 -46 83 -14 59 15 -13 16 -12 3 4 -8 10 -24 23 -35 29 -17 9 -19 8
-8 -3 13 -15 17 -49 4 -49 -5 0 -18 9 -30 20 -12 11 -24 16 -27 10 -7 -11 -37
15 -53 46 -9 17 -19 21 -57 19 -25 -1 -45 0 -45 2 0 1 23 14 51 29 28 14 49
28 46 31 -3 2 -26 -7 -52 -22 -47 -28 -62 -28 -52 -1 15 38 95 62 140 42 12
-6 17 -4 17 8 0 9 5 16 10 16 6 0 10 -3 10 -7z m77 -4 c34 -13 84 -59 77 -71
-3 -4 -26 -8 -51 -8 -38 0 -50 5 -74 31 -23 25 -27 35 -18 45 14 17 29 17 66
3z m2053 1 c13 -9 13 -11 0 -20 -11 -7 -11 -10 -2 -10 10 0 10 -5 2 -20 -8
-15 -21 -20 -48 -20 l-37 1 34 18 34 18 -37 7 c-20 4 -41 4 -46 1 -6 -3 -10
-2 -10 4 0 22 84 38 110 21z m144 -10 c25 -9 56 -47 60 -74 1 -8 13 -24 26
-35 34 -27 14 -26 -36 3 l-41 23 -16 -20 -17 -21 -25 24 c-14 13 -25 18 -25
12 0 -6 5 -14 10 -17 6 -3 10 -15 10 -26 0 -28 -52 -25 -86 4 l-27 23 32 55
c30 52 35 55 32 17 -2 -12 5 -18 21 -19 13 -1 39 -2 58 -4 31 -3 33 -2 15 11
-10 8 -22 14 -27 14 -4 0 -8 9 -8 20 0 22 8 24 44 10z m-3148 -22 c3 -12 27
-43 52 -70 35 -37 43 -51 34 -60 -9 -9 -12 -9 -12 1 0 7 -22 38 -50 68 -47 51
-62 83 -41 83 5 0 13 -10 17 -22z m2327 -17 c19 -21 38 -49 42 -62 10 -31 24
-39 55 -33 24 5 24 5 -3 -11 -20 -12 -26 -21 -22 -35 9 -27 -5 -72 -21 -66 -7
3 -18 -2 -24 -10 -17 -19 -41 -18 -34 1 4 9 3 50 -1 92 -6 64 -11 81 -34 103
-14 15 -33 29 -40 31 -21 7 -4 29 23 29 15 0 37 -15 59 -39z m-2203 19 c0 -5
-7 -10 -15 -10 -8 0 -15 5 -15 10 0 6 7 10 15 10 8 0 15 -4 15 -10z m3750 -31
c-29 -57 -111 -139 -139 -139 -32 0 -17 19 33 41 31 13 52 34 81 78 21 34 40
61 42 61 2 0 -6 -18 -17 -41z m-2279 -4 c-34 -39 -38 -51 -18 -58 9 -3 7 -10
-7 -25 -10 -12 -23 -19 -27 -16 -5 3 -9 0 -9 -5 0 -6 -4 -11 -10 -11 -14 0
-12 45 4 84 15 37 50 66 79 66 16 0 15 -5 -12 -35z m-1039 -36 c229 -185 550
-353 786 -409 50 -12 92 -25 92 -27 0 -3 -24 -2 -52 2 -29 4 -80 8 -113 10
-38 3 -95 17 -150 39 -87 33 -290 137 -337 171 l-23 17 25 -7 c14 -4 32 -10
40 -13 26 -9 0 11 -124 93 -107 71 -233 174 -214 175 5 0 36 -23 70 -51z
m-407 31 c3 -5 -1 -10 -9 -10 -9 0 -16 5 -16 10 0 6 4 10 9 10 6 0 13 -4 16
-10z m265 -137 c30 -36 38 -99 16 -128 -15 -19 -15 -18 -16 18 0 20 -7 45 -16
55 -8 9 -24 28 -35 42 -15 20 -18 21 -13 5 l7 -20 -16 20 c-9 11 -17 31 -17
45 0 14 -7 36 -15 50 -8 14 -14 30 -14 35 -1 10 70 -62 119 -122z m231 -90
c125 -89 319 -195 444 -243 33 -13 64 -27 70 -32 12 -11 -75 0 -89 11 -6 5
-50 25 -97 44 -98 41 -296 158 -376 223 -49 40 -64 48 -85 45 -11 -1 -88 96
-81 102 3 4 24 -8 45 -26 22 -17 98 -73 169 -124z m3188 101 c-19 -20 -43 -40
-54 -46 -17 -9 -16 -6 5 18 14 16 31 33 38 37 7 5 18 14 25 22 6 7 14 11 16 9
3 -2 -11 -20 -30 -40z m-1386 1 c36 25 51 19 28 -11 -12 -15 -21 -37 -21 -49
0 -24 -55 -85 -77 -85 -19 0 -16 10 9 37 15 16 23 40 27 80 3 32 7 48 9 35 3
-21 5 -21 25 -7z m-1009 -17 c20 -27 20 -38 3 -38 -11 0 -37 39 -37 55 0 13
21 2 34 -17z m-247 -18 c37 0 169 -77 203 -118 21 -26 30 -47 30 -72 -1 -34
-1 -34 -14 -11 -11 20 -14 21 -20 6 -3 -9 -4 -21 0 -26 8 -14 -125 85 -178
132 -28 24 -48 36 -48 28 -1 -21 -30 21 -30 43 0 10 -6 18 -13 18 -7 0 -22 7
-33 15 -17 12 -13 12 30 0 27 -8 60 -15 73 -15z m2463 -5 c0 -13 -3 -13 -20
-3 -11 7 -20 19 -20 26 0 10 5 10 20 2 11 -6 20 -17 20 -25z m-3384 -30 c18
-25 19 -78 2 -73 -16 6 -26 42 -26 93 0 22 3 31 5 20 3 -11 12 -29 19 -40z
m2508 40 c-4 -8 -1 -15 5 -15 16 0 14 -26 -4 -43 -11 -12 -12 -16 -3 -19 10
-4 10 -10 1 -31 -13 -28 -25 -31 -140 -41 -47 -4 -62 -3 -60 7 1 6 -4 11 -10
10 -8 -2 -13 7 -13 22 0 37 -14 31 -55 -25 -38 -52 -62 -63 -30 -14 26 39 62
70 131 109 51 29 81 38 176 54 4 0 5 -6 2 -14z m-2091 -11 c4 -1 11 -2 17 -3
5 0 14 -11 21 -22 l11 -21 -32 18 c-17 11 -37 25 -43 33 -10 12 -9 13 3 6 8
-6 18 -10 23 -11z m2724 -26 c-3 -7 -5 -2 -5 12 0 14 2 19 5 13 2 -7 2 -19 0
-25z m133 11 c10 -18 9 -20 -7 -17 -10 2 -19 11 -21 21 -5 24 15 21 28 -4z
m-2915 -110 c18 -35 19 -39 1 -39 -7 0 -21 16 -30 35 -13 26 -25 36 -51 41
-19 3 -42 4 -50 0 -8 -3 -15 -1 -15 5 0 6 9 13 21 16 16 5 19 11 14 31 -6 23
-2 21 45 -18 28 -23 57 -55 65 -71z m3100 81 c-3 -5 -12 -10 -18 -10 -7 0 -6
4 3 10 19 12 23 12 15 0z m-350 -10 c3 -6 4 -19 0 -29 -5 -16 -12 -19 -39 -14
-20 3 -36 1 -40 -6 -4 -6 -12 -11 -18 -11 -19 0 12 29 35 32 12 2 23 9 23 16
2 21 4 22 18 22 8 0 18 -5 21 -10z m-3085 -95 c7 -8 8 -15 3 -15 -5 0 -33 26
-63 57 l-55 57 51 -42 c28 -23 57 -48 64 -57z m187 89 c-3 -3 -12 -4 -19 -1
-8 3 -5 6 6 6 11 1 17 -2 13 -5z m593 -51 c-1 -10 -39 39 -40 51 0 5 9 -3 20
-17 11 -14 20 -29 20 -34z m1267 35 c-3 -8 -6 -5 -6 6 -1 11 2 17 5 13 3 -3 4
-12 1 -19z m1132 -60 c23 -39 18 -48 -12 -25 -9 6 -20 28 -23 47 -8 40 1 34
35 -22z m-307 -7 c2 -17 1 -28 -4 -25 -8 5 -12 54 -4 54 2 0 6 -13 8 -29z
m218 -42 c0 -45 -56 -90 -75 -59 -3 6 1 7 10 4 38 -15 60 50 30 90 -8 10 -12
24 -8 29 10 17 43 -32 43 -64z m173 23 c-6 -23 -75 -67 -87 -55 -13 13 -5 22
24 28 17 4 38 18 47 31 18 29 25 27 16 -4z m-1598 -2 c-3 -5 -13 -10 -21 -10
-8 0 -14 5 -14 10 0 6 9 10 21 10 11 0 17 -4 14 -10z m-1465 -23 c0 -13 6 -29
13 -37 6 -8 2 -6 -10 4 -23 19 -31 56 -13 56 6 0 10 -10 10 -23z m1812 1 c-7
-7 -12 -20 -12 -29 0 -12 -12 -18 -42 -23 -24 -4 -54 -17 -68 -29 l-25 -22 24
27 c13 15 39 31 58 34 23 4 33 11 29 20 -3 7 5 20 16 28 24 17 38 12 20 -6z
m945 0 c-3 -8 -6 -5 -6 6 -1 11 2 17 5 13 3 -3 4 -12 1 -19z m-2899 -18 c13 0
20 -4 17 -10 -9 -14 -58 -13 -73 2 -7 7 -12 18 -12 26 0 10 4 10 22 -2 12 -9
33 -16 46 -16z m2032 -10 c0 -17 -26 -30 -63 -30 -16 0 -15 5 9 35 21 28 29
33 40 24 8 -6 14 -19 14 -29z m110 -13 c0 -2 -10 -12 -22 -23 l-23 -19 19 23
c18 21 26 27 26 19z m460 -12 c-7 -8 -22 -15 -34 -15 -20 1 -20 2 4 15 33 19
46 19 30 0z m-2136 -98 c2 -36 7 -71 11 -77 5 -8 1 -11 -11 -8 -14 3 -18 11
-16 28 7 49 2 123 -10 139 -11 15 -10 15 5 0 13 -11 19 -35 21 -82z m-327 35
c33 -26 71 -56 84 -65 42 -31 -4 -6 -68 37 -51 34 -95 76 -79 76 2 0 30 -22
63 -48z m28 20 c-3 -3 -11 0 -18 7 -9 10 -8 11 6 5 10 -3 15 -9 12 -12z m2579
-21 c-2 -2 -10 2 -18 8 -11 9 -20 9 -34 2 -23 -12 -19 -48 7 -68 14 -11 14
-12 1 -13 -21 0 -40 20 -40 41 0 10 -10 25 -22 33 -22 16 -22 16 14 16 20 0
40 5 43 10 4 6 15 3 30 -7 13 -10 21 -20 19 -22z m-264 10 c-36 -19 -100 -38
-89 -26 9 8 101 44 114 44 6 0 -6 -8 -25 -18z m-535 -12 c0 -18 -62 -17 -79 1
-8 10 -4 11 22 7 20 -4 32 -2 32 4 0 6 6 9 13 7 6 -3 12 -11 12 -19z m-1648
-30 c46 -22 83 -43 80 -45 -3 -3 -45 15 -93 40 -111 56 -102 60 13 5z m2316 4
c-6 -16 -6 -16 -22 15 -11 21 -11 22 7 11 11 -7 18 -19 15 -26z m357 27 c-8
-5 -33 -10 -55 -10 -29 0 -36 3 -25 10 8 5 33 10 55 10 29 0 36 -3 25 -10z
m-2440 -15 c0 -8 -4 -15 -9 -15 -13 0 -22 16 -14 24 11 11 23 6 23 -9z m170
-79 c0 -4 -7 -5 -15 -2 -8 3 -22 9 -30 12 -11 4 -19 -4 -29 -28 -8 -19 -22
-40 -30 -48 -21 -16 -20 -12 4 35 23 45 26 75 7 75 -8 0 -22 9 -33 21 -13 15
2 10 54 -18 39 -21 72 -42 72 -47z m1670 54 c-11 -21 -23 -23 -55 -11 -18 8
-16 10 15 19 50 15 52 14 40 -8z m-505 0 c3 -5 1 -10 -4 -10 -6 0 -11 5 -11
10 0 6 2 10 4 10 3 0 8 -4 11 -10z m-960 -20 c13 -5 14 -9 5 -9 -8 0 -24 4
-35 9 -13 5 -14 9 -5 9 8 0 24 -4 35 -9z m1635 -9 c16 -30 12 -77 -7 -92 -15
-11 -16 -11 -5 1 6 8 12 23 12 34 -1 28 -34 71 -49 62 -16 -10 -14 -58 5 -84
18 -26 4 -30 -18 -4 -23 26 -27 58 -11 81 18 26 59 27 73 2z m-1660 -21 c0 -5
-4 -11 -9 -14 -5 -3 -7 -15 -4 -26 6 -21 0 -23 -29 -12 -16 6 -16 10 -2 39 10
20 21 30 30 26 8 -3 14 -9 14 -13z m1024 -26 c21 5 21 5 2 -9 -11 -8 -26 -15
-33 -15 -18 0 -53 37 -53 56 0 12 7 10 32 -11 20 -17 39 -25 52 -21z m524 16
c3 -24 3 -24 -11 -6 -9 13 -21 17 -36 13 -22 -5 -30 8 -8 17 27 11 52 1 55
-24z m217 20 c-3 -5 -10 -10 -16 -10 -5 0 -9 5 -9 10 0 6 7 10 16 10 8 0 12
-4 9 -10z m-480 -14 c-45 -19 -85 -28 -85 -18 0 5 19 14 43 19 60 15 77 14 42
-1z m-1735 -16 c0 -6 12 -22 26 -35 15 -14 23 -25 18 -25 -13 0 -64 49 -64 60
0 6 5 10 10 10 6 0 10 -5 10 -10z m1370 -22 c0 -12 -38 -29 -44 -20 -3 5 2 19
11 31 12 18 17 20 24 10 5 -8 9 -17 9 -21z m430 -8 c0 -11 -7 -20 -15 -20 -15
0 -21 21 -8 33 12 13 23 7 23 -13z m-660 -6 c0 -8 -4 -12 -10 -9 -5 3 -10 10
-10 16 0 5 5 9 10 9 6 0 10 -7 10 -16z m590 2 c0 -8 8 -17 18 -19 9 -3 3 -5
-15 -6 -26 -1 -30 2 -26 19 6 23 23 27 23 6z"/>
<path d="M1515 4917 c-22 -17 -12 -37 20 -37 29 0 41 16 25 35 -15 18 -21 19
-45 2z"/>
<path d="M2850 4503 c0 -5 13 -17 28 -27 l27 -19 -24 26 c-26 28 -31 32 -31
20z"/>
<path d="M3203 4174 c-18 -8 -16 -39 3 -55 8 -7 24 -29 34 -48 11 -20 19 -30
20 -23 0 8 8 10 25 6 38 -9 30 3 -16 26 -23 12 -39 24 -36 27 13 13 111 -20
148 -49 32 -26 42 -29 49 -18 29 46 -165 160 -227 134z"/>
<path d="M2519 4111 c-23 -22 -50 -52 -60 -68 -17 -25 -17 -29 -2 -46 14 -15
15 -26 7 -67 l-11 -50 31 1 c17 0 25 3 19 6 -7 2 -13 20 -13 39 0 25 9 44 36
74 20 22 33 40 29 40 -4 0 -23 -17 -41 -37 -39 -43 -44 -29 -15 40 21 48 45
64 69 45 33 -27 81 -84 82 -95 0 -19 14 -15 28 8 12 19 8 26 -45 84 -32 34
-61 63 -65 64 -3 0 -25 -17 -49 -38z"/>
<path d="M2290 3966 c-14 -9 -21 -15 -17 -16 4 0 -1 -10 -13 -22 -36 -39 -19
-52 28 -20 51 35 57 35 23 -1 -19 -20 -32 -40 -28 -43 3 -4 35 -3 71 1 l66 7
11 40 c7 28 7 44 0 51 -17 17 -113 19 -141 3z"/>
<path d="M2730 3972 c0 -6 10 -18 23 -27 12 -8 28 -30 35 -48 l12 -32 -3 33
c-3 29 -1 32 17 26 12 -4 30 -17 41 -29 11 -12 28 -25 38 -28 33 -12 -18 68
-55 86 -45 21 -108 32 -108 19z m135 -51 c3 -5 -12 -2 -34 7 -22 9 -37 20 -35
24 6 9 59 -16 69 -31z"/>
<path d="M2695 3948 c-9 -35 -3 -61 15 -64 8 -1 23 -5 33 -9 26 -11 22 21 -7
50 -13 13 -26 30 -29 37 -2 7 -8 1 -12 -14z"/>
<path d="M4357 3234 c-4 -4 -7 -14 -7 -23 0 -11 3 -12 11 -4 6 6 10 16 7 23
-2 6 -7 8 -11 4z"/>
<path d="M4340 3107 c0 -14 4 -28 8 -31 9 -5 8 41 -1 51 -4 3 -7 -5 -7 -20z"/>
<path d="M1009 2976 c-43 -93 -48 -140 -21 -195 38 -76 105 -94 196 -53 38 17
47 25 38 34 -7 7 -12 19 -12 27 0 26 -61 110 -96 132 -37 23 -64 65 -64 100 0
18 2 19 15 9 13 -10 15 -9 15 9 0 12 -6 21 -16 21 -9 0 -30 -31 -55 -84z m21
-95 c0 -6 -4 -13 -10 -16 -5 -3 -10 1 -10 9 0 9 5 16 10 16 6 0 10 -4 10 -9z
m102 -28 c19 -17 24 -43 8 -43 -16 0 -51 40 -45 50 9 14 16 12 37 -7z"/>
<path d="M4336 2955 c-10 -38 -21 -72 -23 -74 -2 -3 -9 4 -17 15 -12 16 -13
12 -4 -36 7 -38 6 -72 -2 -117 -7 -35 -10 -66 -8 -68 2 -3 12 37 22 88 9 50
26 123 37 160 11 38 19 76 17 85 -2 9 -12 -14 -22 -53z"/>
<path d="M4164 2756 c-3 -14 -10 -23 -15 -20 -5 3 -9 1 -9 -4 0 -6 6 -12 14
-15 10 -4 17 4 21 24 8 38 -2 51 -11 15z"/>
<path d="M1278 2713 c6 -2 18 -2 25 0 6 3 1 5 -13 5 -14 0 -19 -2 -12 -5z"/>
<path d="M3813 2713 c9 -2 23 -2 30 0 6 3 -1 5 -18 5 -16 0 -22 -2 -12 -5z"/>
<path d="M3900 2717 c0 -3 20 -22 44 -42 l44 -36 59 17 c68 19 101 42 56 39
-15 -1 -42 -5 -59 -9 -28 -6 -62 2 -126 29 -10 4 -18 5 -18 2z"/>
<path d="M3814 2659 c-3 -5 6 -9 20 -9 31 0 34 6 6 13 -11 3 -23 1 -26 -4z"/>
<path d="M4176 2651 c-3 -5 1 -14 9 -21 13 -10 15 -9 15 9 0 21 -14 28 -24 12z"/>
<path d="M4437 2279 c7 -7 15 -10 18 -7 3 3 -2 9 -12 12 -14 6 -15 5 -6 -5z"/>
<path d="M4440 2195 c0 -5 5 -17 10 -25 5 -8 10 -10 10 -5 0 6 -5 17 -10 25
-5 8 -10 11 -10 5z"/>
<path d="M4044 1988 c-33 -40 -84 -99 -114 -133 l-54 -60 48 45 c26 25 75 79
108 120 81 100 81 100 76 100 -3 0 -32 -32 -64 -72z"/>
<path d="M1628 1558 c11 -14 52 -31 52 -22 0 2 -15 11 -32 20 -28 14 -31 15
-20 2z"/>
<path d="M2765 3708 c-22 -68 -32 -118 -24 -123 17 -11 29 6 29 41 0 42 16 37
28 -9 l8 -32 16 30 16 30 7 -38 c4 -21 13 -37 21 -37 11 0 14 17 14 70 0 77
-10 87 -38 40 l-19 -30 -16 35 c-17 36 -34 45 -42 23z"/>
<path d="M2215 3640 c0 -49 4 -70 13 -70 7 0 12 13 12 33 l1 32 23 -29 c17
-20 29 -27 41 -22 15 5 14 9 -8 27 -23 17 -25 23 -15 44 16 36 4 55 -35 55
l-33 0 1 -70z m49 41 c3 -5 -1 -14 -9 -21 -8 -7 -15 -10 -15 -7 0 3 -3 12 -6
21 -7 17 20 23 30 7z"/>
<path d="M2454 3703 c5 -9 0 -13 -14 -13 -16 0 -20 -4 -16 -16 3 -9 6 -24 6
-35 0 -10 5 -19 11 -19 7 0 9 11 6 26 -3 19 0 27 15 33 19 7 19 8 2 22 -11 8
-15 9 -10 2z"/>
<path d="M2522 3698 c-20 -20 -15 -66 9 -78 16 -9 26 -8 45 5 41 27 27 85 -21
85 -12 0 -26 -5 -33 -12z m53 -34 c0 -22 -5 -29 -20 -29 -23 0 -32 30 -14 51
18 22 34 11 34 -22z"/>
<path d="M2091 3673 c-32 -28 -38 -76 -11 -103 39 -39 100 -7 100 53 0 63 -43
87 -89 50z m67 -26 c10 -49 -25 -90 -54 -66 -17 14 -18 61 -2 77 18 18 52 11
56 -11z"/>
<path d="M2916 3628 c-3 -34 -5 -62 -4 -64 11 -9 72 -7 75 4 3 7 -5 12 -21 12
-23 0 -25 3 -24 45 1 46 12 56 37 33 10 -11 12 -10 9 2 -4 20 -18 30 -44 30
-19 0 -22 -8 -28 -62z"/>
<path d="M3051 3607 c-46 -61 -47 -63 -25 -71 11 -4 15 -2 11 8 -8 20 15 36
40 30 14 -4 23 -15 25 -32 2 -16 10 -28 21 -30 15 -3 16 0 6 24 -5 16 -10 50
-11 76 0 63 -15 62 -67 -5z"/>
<path d="M1942 3628 c-23 -23 -14 -47 20 -56 40 -10 47 -34 16 -50 -23 -11
-23 -11 -1 -11 26 -1 55 26 51 48 -2 9 -18 23 -35 31 -33 15 -39 37 -9 32 9
-2 16 2 16 8 0 14 -43 13 -58 -2z"/>
<path d="M3220 3600 c0 -6 -11 -32 -24 -59 l-24 -50 40 -16 c46 -18 74 -9 34
12 -31 16 -31 19 -6 77 19 46 19 46 0 46 -11 0 -20 -5 -20 -10z"/>
<path d="M1797 3573 c-2 -5 -7 -36 -11 -70 -6 -54 -5 -62 9 -57 8 3 15 15 15
26 0 17 6 19 38 16 46 -4 47 7 5 55 -32 36 -48 45 -56 30z m43 -64 c0 -5 -7
-9 -15 -9 -15 0 -20 12 -9 23 8 8 24 -1 24 -14z"/>
<path d="M3350 3520 c-12 -22 -8 -33 22 -66 26 -29 8 -40 -31 -19 -40 20 -48
19 -27 -4 35 -39 96 -34 96 7 0 9 -9 26 -21 38 -22 23 -19 44 7 44 8 0 12 5 9
10 -11 17 -44 11 -55 -10z"/>
<path d="M1640 3493 c-32 -22 -40 -33 -40 -60 0 -29 47 -65 74 -57 33 10 47
27 35 44 -8 13 -11 13 -20 -2 -19 -33 -69 -15 -69 24 0 9 17 29 37 43 21 14
31 25 23 25 -9 0 -27 -8 -40 -17z"/>
<path d="M3502 3449 c-24 -9 -23 -18 6 -51 18 -21 7 -44 -14 -27 -16 13 -30 6
-19 -10 10 -16 55 -13 61 4 4 8 -1 26 -10 40 -21 31 -20 35 5 35 11 0 17 5 14
10 -7 12 -12 12 -43 -1z"/>
<path d="M1448 3379 c-29 -15 -38 -26 -38 -45 l0 -26 26 31 c14 17 32 31 40
31 21 0 36 -47 24 -71 -13 -22 -14 -23 -40 -7 -24 15 -37 4 -20 -17 31 -37 93
-1 93 55 0 27 -27 71 -42 70 -3 -1 -23 -10 -43 -21z"/>
<path d="M3630 3359 c-14 -26 -7 -35 10 -14 7 8 20 15 29 15 14 0 14 2 1 10
-22 14 -28 12 -40 -11z"/>
<path d="M3730 3326 c0 -3 9 -10 20 -16 11 -6 20 -8 20 -6 0 3 -9 10 -20 16
-11 6 -20 8 -20 6z"/>
<path d="M2760 3230 c8 -5 33 -10 56 -10 l41 0 -4 -47 c-3 -27 5 -131 17 -233
17 -152 24 -189 40 -205 20 -19 20 -19 20 21 0 58 -29 400 -36 429 -6 24 -4
25 42 26 l49 1 -60 13 c-72 16 -188 20 -165 5z"/>
<path d="M1835 3183 c-78 -17 -159 -73 -187 -127 -5 -12 9 0 31 26 56 64 117
92 200 91 44 0 58 3 41 8 -28 8 -56 9 -85 2z"/>
<path d="M3418 3153 c7 -3 16 -2 19 1 4 3 -2 6 -13 5 -11 0 -14 -3 -6 -6z"/>
<path d="M3458 3143 c7 -3 16 -2 19 1 4 3 -2 6 -13 5 -11 0 -14 -3 -6 -6z"/>
<path d="M2162 3053 c-1 -21 -7 -59 -14 -85 -6 -26 -9 -50 -6 -53 3 -3 22 4
42 16 31 18 35 25 30 47 -7 26 -44 112 -48 112 -2 0 -3 -17 -4 -37z"/>
<path d="M3395 3080 c3 -5 14 -10 23 -10 15 0 15 2 2 10 -20 13 -33 13 -25 0z"/>
<path d="M1606 2964 c-4 -14 -5 -28 -3 -31 3 -2 8 8 11 23 4 14 5 28 3 31 -3
2 -8 -8 -11 -23z"/>
<path d="M1591 2894 c0 -11 3 -14 6 -6 3 7 2 16 -1 19 -3 4 -6 -2 -5 -13z"/>
<path d="M2170 2862 c-72 -17 -76 -19 -67 -28 9 -9 147 26 147 37 0 11 2 11
-80 -9z"/>
<path d="M1610 2797 c0 -99 69 -187 146 -187 19 0 34 4 34 9 0 5 -18 24 -40
41 -48 38 -70 77 -70 123 0 37 -15 55 -49 62 -19 4 -21 -1 -21 -48z"/>
<path d="M2630 2808 c0 -26 16 -55 24 -47 3 3 9 20 12 37 6 28 4 32 -15 32
-15 0 -21 -6 -21 -22z"/>
<path d="M1581 2804 c0 -11 3 -14 6 -6 3 7 2 16 -1 19 -3 4 -6 -2 -5 -13z"/>
<path d="M2380 2750 c-24 -8 -24 -8 5 -9 17 0 37 4 45 9 12 8 11 10 -5 9 -11
-1 -31 -5 -45 -9z"/>
<path d="M1591 2734 c0 -11 3 -14 6 -6 3 7 2 16 -1 19 -3 4 -6 -2 -5 -13z"/>
<path d="M3365 2639 c-4 -6 -4 -13 -1 -16 8 -8 36 5 36 17 0 13 -27 13 -35 -1z"/>
<path d="M885 3010 c3 -5 8 -10 11 -10 2 0 4 5 4 10 0 6 -5 10 -11 10 -5 0 -7
-4 -4 -10z"/>
<path d="M3860 2966 c0 -17 14 -29 23 -20 8 8 -3 34 -14 34 -5 0 -9 -6 -9 -14z"/>
<path d="M2486 2538 c-9 -12 -16 -33 -16 -45 0 -23 32 -63 50 -63 19 0 50 40
50 66 0 61 -53 87 -84 42z m52 -50 c-2 -15 -10 -23 -23 -23 -13 0 -21 8 -23
23 -3 18 1 22 23 22 22 0 26 -4 23 -22z"/>
<path d="M2676 2552 c-8 -7 -8 -62 0 -62 18 0 44 23 44 39 0 18 -33 35 -44 23z"/>
<path d="M2620 2137 c0 -54 1 -57 24 -57 l25 0 -16 48 c-23 70 -33 73 -33 9z"/>
<path d="M1980 2091 c0 -6 4 -13 10 -16 6 -3 7 1 4 9 -7 18 -14 21 -14 7z"/>
<path d="M2383 2083 c9 -2 25 -2 35 0 9 3 1 5 -18 5 -19 0 -27 -2 -17 -5z"/>
<path d="M3080 2009 l0 -76 30 5 c30 4 30 5 30 68 0 59 -1 63 -22 59 -12 -3
-26 1 -30 8 -4 6 -8 -22 -8 -64z"/>
<path d="M2198 1974 c-3 -65 1 -71 36 -58 26 10 21 76 -8 101 l-24 21 -4 -64z"/>
<path d="M2567 2028 c-3 -10 10 -12 54 -10 33 2 59 8 59 13 0 14 -107 11 -113
-3z"/>
<path d="M2316 1979 c-11 -57 -12 -56 79 -56 63 0 85 3 85 13 0 9 -19 14 -62
16 -60 3 -63 4 -66 31 -4 37 -28 34 -36 -4z"/>
<path d="M3293 1984 c-19 -20 -19 -25 -6 -35 18 -15 33 2 33 39 0 26 1 26 -27
-4z"/>
<path d="M2716 1992 c-3 -5 0 -25 6 -45 9 -28 17 -37 33 -37 31 0 35 8 23 41
-12 36 -50 61 -62 41z"/>
<path d="M2840 1940 c0 -22 7 -25 29 -11 16 10 6 31 -15 31 -8 0 -14 -9 -14
-20z"/>
<path d="M3678 1865 c4 -30 1 -35 -16 -35 -21 0 -52 -39 -52 -65 0 -24 45 -41
75 -27 33 15 34 35 0 22 -18 -7 -28 -5 -40 7 -9 8 -14 20 -12 26 5 16 64 26
76 14 18 -18 13 31 -6 64 -23 38 -30 37 -25 -6z"/>
<path d="M1650 1750 c0 -5 7 -10 15 -10 8 0 15 5 15 10 0 6 -7 10 -15 10 -8 0
-15 -4 -15 -10z"/>
<path d="M1720 1692 c-14 -31 -26 -59 -28 -64 -2 -4 3 -8 11 -8 8 0 22 17 30
38 l17 37 -3 -37 c-2 -25 2 -39 11 -43 19 -7 24 -6 18 4 -3 5 1 12 10 15 13 5
14 1 9 -27 -9 -43 7 -26 33 36 22 51 15 60 -26 31 -21 -15 -22 -14 -22 18 0
21 -7 37 -18 44 -15 10 -20 4 -42 -44z"/>
<path d="M3530 1735 c7 -9 15 -13 17 -11 7 7 -7 26 -19 26 -6 0 -6 -6 2 -15z"/>
<path d="M3415 1730 c-3 -5 -1 -10 4 -10 6 0 11 5 11 10 0 6 -2 10 -4 10 -3 0
-8 -4 -11 -10z"/>
<path d="M3360 1695 c-19 -23 -2 -47 39 -59 39 -11 35 -31 -7 -31 -17 0 -27
-4 -23 -8 14 -14 63 -3 75 16 15 24 -4 52 -35 52 -13 0 -24 5 -24 10 0 6 6 9
13 9 18 -3 9 20 -10 24 -8 2 -21 -4 -28 -13z"/>
<path d="M3519 1698 c15 -20 41 -24 41 -7 0 5 -5 7 -10 4 -6 -4 -19 -1 -28 7
-15 12 -16 11 -3 -4z"/>
<path d="M3287 1664 c-7 -7 38 -99 53 -109 16 -10 12 12 -11 66 -21 47 -29 56
-42 43z"/>
<path d="M1895 1632 c-3 -15 -12 -39 -20 -54 -13 -26 -12 -27 23 -41 44 -18
66 -10 28 10 -37 19 -33 36 7 29 32 -6 32 -6 10 10 -29 21 -32 49 -4 34 24
-12 31 -13 31 -2 0 5 -16 16 -35 25 l-35 17 -5 -28z"/>
<path d="M1841 1610 c-20 -28 -21 -50 -1 -50 9 0 35 69 28 76 -3 2 -14 -10
-27 -26z"/>
<path d="M3194 1565 c1 -40 5 -65 12 -65 18 0 23 11 15 34 -6 13 -4 25 4 33
10 9 18 6 35 -12 13 -14 28 -21 38 -17 12 4 5 15 -33 49 -27 24 -54 43 -60 43
-7 0 -11 -24 -11 -65z"/>
<path d="M2006 1561 c-25 -26 -46 -50 -46 -54 0 -14 33 -7 45 9 10 14 15 14
34 4 12 -6 20 -18 17 -25 -4 -11 22 -32 29 -23 8 10 -10 128 -20 132 -7 2 -33
-17 -59 -43z m50 -10 c0 -11 -4 -17 -8 -15 -4 3 -8 12 -8 20 0 8 4 14 8 14 4
0 8 -9 8 -19z"/>
<path d="M3078 1583 c-23 -6 -22 -10 3 -68 19 -43 23 -46 47 -40 36 9 49 22
35 36 -8 8 -13 8 -17 0 -10 -16 -33 -13 -40 4 -4 10 3 20 19 27 35 16 31 29
-7 21 -26 -5 -30 -4 -25 10 4 10 5 16 4 16 -1 -1 -10 -3 -19 -6z"/>
<path d="M2170 1561 c0 -12 -9 -40 -21 -62 -11 -23 -18 -43 -16 -46 3 -2 31
-6 63 -9 58 -4 58 -4 24 8 -38 14 -42 35 -15 91 7 15 10 27 5 27 -5 0 -15 3
-24 6 -12 4 -16 0 -16 -15z"/>
<path d="M2967 1553 c-22 -4 -27 -8 -22 -21 4 -9 9 -36 12 -58 l5 -41 36 8
c19 4 41 14 49 22 13 13 12 20 -6 56 -12 22 -27 40 -34 40 -6 -1 -25 -4 -40
-6z m39 -32 c-10 -16 -36 -13 -36 3 0 17 21 27 34 16 4 -5 5 -13 2 -19z m24
-36 c0 -16 -35 -21 -44 -6 -8 12 4 21 26 21 10 0 18 -7 18 -15z"/>
<path d="M2342 1518 c-18 -18 -14 -56 8 -78 21 -21 100 -29 100 -10 0 6 -11 8
-25 4 -16 -4 -35 0 -51 11 -22 14 -25 22 -21 51 6 38 6 39 -11 22z"/>
<path d="M2496 1519 c-9 -28 -13 -109 -6 -109 8 0 23 110 15 118 -2 3 -7 -1
-9 -9z"/>
<path d="M2557 1513 c-4 -3 -7 -28 -7 -55 0 -48 0 -48 33 -48 41 0 57 15 57
55 0 17 -5 36 -12 43 -13 13 -60 16 -71 5z m61 -44 c2 -27 -1 -38 -13 -43 -26
-10 -31 -1 -27 44 3 31 8 40 21 38 10 -2 17 -15 19 -39z"/>
<path d="M2679 1465 c-11 -37 -13 -55 -5 -52 6 2 13 12 14 23 7 36 21 39 33 6
10 -28 39 -46 39 -23 0 21 -42 101 -53 101 -7 0 -19 -25 -28 -55z"/>
<path d="M2800 1486 c0 -12 5 -16 16 -12 9 3 20 6 25 6 5 0 9 6 9 14 0 9 -10
13 -25 12 -17 -1 -25 -7 -25 -20z"/>
<path d="M2420 1496 c0 -9 30 -14 35 -6 4 6 -3 10 -14 10 -12 0 -21 -2 -21 -4z"/>
<path d="M2810 1435 c0 -13 4 -14 20 -5 11 6 20 13 20 15 0 3 -9 5 -20 5 -11
0 -20 -7 -20 -15z"/>
<path d="M4440 1875 c0 -15 18 -40 24 -34 3 3 -1 14 -9 25 -8 10 -14 15 -15 9z"/>
<path d="M2510 390 c-13 -8 -12 -10 3 -10 9 0 17 5 17 10 0 12 -1 12 -20 0z"/>
<path d="M2620 310 c0 -5 7 -10 15 -10 8 0 15 5 15 10 0 6 -7 10 -15 10 -8 0
-15 -4 -15 -10z"/>
<path d="M1437 676 c-6 -15 1 -26 15 -26 11 0 10 27 -1 34 -5 3 -11 0 -14 -8z"/>
<path d="M1830 422 c0 -10 26 -34 50 -47 8 -4 2 6 -14 23 -32 34 -36 37 -36
24z"/>
<path d="M1900 366 c0 -3 9 -10 20 -16 11 -6 20 -8 20 -6 0 3 -9 10 -20 16
-11 6 -20 8 -20 6z"/>
<path d="M2667 5099 c-5 -20 -5 -20 14 -3 23 20 23 24 5 24 -7 0 -16 -9 -19
-21z"/>
<path d="M2827 5113 c-2 -4 -12 -33 -21 -64 -19 -69 -44 -95 -71 -75 -18 13
-18 14 3 41 12 15 22 34 22 41 0 22 -20 27 -39 10 -10 -9 -22 -16 -28 -16 -10
0 -53 -59 -53 -73 0 -3 9 -3 20 0 11 3 20 0 20 -6 0 -6 11 -17 25 -23 20 -9
24 -16 20 -40 -4 -22 1 -37 19 -58 13 -16 26 -35 28 -41 2 -7 10 -9 16 -5 17
10 15 29 -2 23 -25 -10 -25 39 0 83 22 39 22 40 3 40 -26 0 -20 18 15 44 26
20 28 20 40 4 16 -22 27 -23 20 -3 -8 19 9 19 47 -1 21 -10 43 -13 74 -8 40 5
46 10 64 50 22 46 27 74 13 74 -5 0 -14 -18 -21 -40 -14 -49 -62 -84 -101 -75
-36 9 -71 47 -79 85 -6 32 -24 50 -34 33z"/>
<path d="M3152 5106 c20 -6 40 -14 44 -18 4 -4 13 -3 20 3 19 15 84 2 84 -16
0 -8 -4 -15 -10 -15 -5 0 -10 6 -10 13 0 9 -3 8 -9 -2 -6 -9 -11 -10 -15 -2
-10 16 -33 13 -40 -5 -10 -27 5 -64 33 -79 31 -17 8 -20 -36 -4 -29 10 -31 13
-26 50 5 35 3 39 -15 39 -23 0 -39 -37 -29 -64 3 -8 1 -16 -5 -18 -5 -2 68
-30 163 -61 169 -56 348 -131 399 -167 14 -10 59 -35 100 -56 41 -21 77 -41
80 -44 3 -3 26 -23 53 -44 l47 -38 0 29 c0 16 5 34 11 40 8 8 8 15 0 25 -6 7
-20 24 -30 38 -25 33 -36 20 -21 -24 18 -56 6 -65 -25 -18 -24 36 -26 46 -17
67 15 32 2 32 -28 0 -30 -32 -42 -31 -82 4 -18 15 -38 30 -44 32 -8 3 -5 18 7
47 13 31 24 42 40 42 20 0 21 -1 6 -17 -29 -33 -26 -90 6 -102 30 -12 46 -4
53 28 10 41 13 42 44 19 17 -12 33 -19 37 -15 12 13 -37 54 -106 90 -64 34
-70 35 -84 19 -25 -28 -37 -68 -24 -81 22 -22 -25 -11 -77 18 -28 16 -87 44
-131 61 -44 17 -82 34 -84 36 -3 2 3 10 13 17 12 9 18 28 19 65 1 28 5 52 8
52 13 0 215 -92 273 -124 145 -80 202 -107 172 -82 -77 64 -393 217 -527 255
-55 15 -101 21 -175 20 -90 -1 -96 -2 -62 -13z m221 -33 c4 -3 1 -13 -6 -21
-10 -13 -9 -14 11 -3 12 6 26 10 30 7 9 -5 9 -113 0 -122 -4 -3 -32 2 -63 11
l-57 16 21 23 c11 12 21 32 21 43 0 43 22 67 43 46z"/>
<path d="M3366 5021 c-4 -5 -2 -12 3 -15 5 -4 12 -2 15 3 4 5 2 12 -3 15 -5 4
-12 2 -15 -3z"/>
<path d="M3340 4959 c0 -5 9 -9 20 -9 11 0 20 2 20 4 0 2 -9 6 -20 9 -11 3
-20 1 -20 -4z"/>
<path d="M3755 5055 c66 -36 121 -65 122 -65 7 0 187 -120 238 -159 108 -81
267 -224 391 -348 l121 -122 35 29 c34 28 63 82 51 94 -4 3 -17 6 -29 6 -21 0
-23 2 -13 27 8 23 7 30 -8 41 -16 11 -16 14 -3 22 8 5 19 10 23 10 5 0 7 10 5
23 -2 12 3 27 11 33 11 9 11 15 -4 37 -16 24 -16 27 -1 27 9 0 25 9 36 20 11
11 26 20 33 20 7 0 17 10 22 23 8 16 19 22 46 23 20 1 41 4 47 8 7 4 21 2 32
-4 16 -9 25 -8 37 1 13 11 18 10 34 -10 14 -17 25 -22 43 -17 21 5 26 1 36
-28 6 -18 22 -44 35 -56 l25 -23 0 226 0 227 -742 0 -743 0 120 -65z"/>
<path d="M1515 5095 l-30 -14 30 6 c17 3 34 10 40 14 14 13 -5 10 -40 -6z"/>
<path d="M3075 5073 c-3 -20 -13 -46 -21 -59 -14 -21 -14 -22 16 -29 17 -4 33
-5 35 -3 2 2 7 23 11 46 4 28 3 42 -5 42 -6 0 -11 6 -11 14 0 32 -18 24 -25
-11z"/>
<path d="M3578 5095 c28 -20 87 -45 104 -44 15 0 -100 59 -116 59 -6 0 -1 -7
12 -15z"/>
<path d="M2699 5073 c-13 -16 -12 -17 4 -4 16 13 21 21 13 21 -2 0 -10 -8 -17
-17z"/>
<path d="M3720 5032 c0 -5 28 -24 63 -42 102 -54 179 -101 227 -139 24 -20 62
-48 85 -62 22 -14 83 -63 135 -108 l95 -82 -75 72 c-72 69 -251 209 -335 261
-86 53 -195 109 -195 100z"/>
<path d="M3486 4973 c-10 -85 25 -104 39 -21 l7 42 19 -23 c18 -22 18 -24 3
-36 -11 -8 -13 -14 -6 -19 6 -3 13 -2 17 4 3 5 10 10 16 10 5 0 4 -8 -2 -19
-16 -24 -5 -51 21 -51 25 0 72 70 58 87 -8 11 -65 40 -134 69 l-31 13 -7 -56z"/>
<path d="M2865 4960 c-19 -8 -19 -9 3 -9 12 -1 22 4 22 9 0 6 -1 10 -2 9 -2 0
-12 -4 -23 -9z"/>
<path d="M3008 4956 c-23 -17 -13 -26 28 -26 70 0 224 -43 224 -62 0 -5 10 -6
21 -3 14 5 19 3 15 -3 -3 -6 2 -8 12 -5 11 2 26 -2 34 -10 8 -9 57 -29 109
-46 52 -18 105 -40 119 -50 14 -9 45 -25 70 -35 25 -10 68 -32 95 -51 28 -18
68 -41 90 -53 41 -20 191 -137 255 -197 150 -142 264 -264 335 -359 96 -128
112 -154 161 -256 20 -41 63 -131 95 -199 63 -129 89 -205 109 -306 6 -33 16
-77 21 -99 9 -33 19 -99 22 -143 1 -21 47 -16 47 5 0 32 -37 194 -65 282 -25
80 -108 283 -125 305 -4 6 -42 74 -83 153 -116 218 -267 407 -487 612 -167
155 -313 257 -517 359 -193 96 -426 170 -541 171 -35 1 -36 2 -18 15 14 11 16
15 5 15 -8 0 -22 -7 -31 -14z"/>
<path d="M3671 4892 c-7 -20 -15 -43 -17 -49 -3 -7 1 -13 9 -13 16 0 71 77 59
83 -32 17 -40 14 -51 -21z"/>
<path d="M3970 4780 c0 -18 9 -43 20 -57 11 -14 20 -33 20 -42 1 -13 3 -12 16
4 15 19 15 19 9 -10 -5 -25 -5 -27 5 -12 7 11 26 25 44 33 l31 13 -27 1 c-25
0 -33 9 -29 32 0 4 -14 18 -32 31 -55 41 -57 41 -57 7z m34 -26 c3 -8 2 -12
-4 -9 -6 3 -10 10 -10 16 0 14 7 11 14 -7z"/>
<path d="M2784 4774 c3 -9 6 -27 6 -40 0 -23 1 -24 31 -11 18 7 39 23 48 36
15 24 15 24 -9 19 -14 -3 -33 -9 -43 -13 -13 -6 -16 -4 -11 9 4 11 1 16 -11
16 -12 0 -15 -5 -11 -16z"/>
<path d="M2762 4700 c0 -14 2 -19 5 -12 2 6 2 18 0 25 -3 6 -5 1 -5 -13z"/>
<path d="M4021 4624 c0 -11 3 -14 6 -6 3 7 2 16 -1 19 -3 4 -6 -2 -5 -13z"/>
<path d="M4107 4607 c-4 -10 -7 -35 -6 -55 l1 -37 9 40 c11 45 8 82 -4 52z"/>
<path d="M4191 4599 c7 -13 12 -28 10 -34 -8 -24 -3 -103 8 -123 6 -11 11 -31
11 -44 0 -13 5 -30 10 -38 8 -11 9 -8 4 13 -6 26 -4 27 30 27 26 0 34 4 30 14
-4 11 0 13 15 9 12 -3 24 -9 27 -14 3 -5 12 -9 21 -9 14 0 14 2 -2 20 -23 26
-53 34 -70 20 -8 -6 -19 -9 -25 -5 -12 7 -50 79 -50 95 0 20 29 10 52 -19 13
-16 37 -31 56 -34 17 -4 32 -5 32 -3 0 2 -39 36 -86 76 -52 44 -81 63 -73 49z"/>
<path d="M4500 4416 c0 -2 8 -10 18 -17 15 -13 16 -12 3 4 -13 16 -21 21 -21
13z"/>
<path d="M4683 4382 c-24 -15 -43 -31 -43 -36 0 -5 12 -24 26 -43 18 -24 31
-32 44 -28 21 7 40 -20 40 -56 0 -12 31 -70 68 -128 131 -203 186 -309 263
-501 l38 -95 0 451 1 452 -22 6 c-44 11 -56 7 -51 -17 4 -21 2 -23 -31 -19
-34 4 -36 3 -36 -27 0 -24 -4 -31 -20 -31 -13 0 -24 10 -30 26 -10 25 -11 25
-35 10 -23 -15 -55 -13 -55 5 0 5 -14 9 -30 9 -23 0 -33 6 -42 25 -14 32 -33
31 -85 -3z"/>
<path d="M4308 4275 c103 -116 114 -126 135 -119 13 4 17 2 13 -5 -4 -6 0 -11
11 -11 23 0 56 37 64 70 l6 25 13 -27 c7 -16 21 -28 32 -28 24 0 24 1 -18 52
-54 64 -66 68 -58 18 11 -65 -33 -100 -82 -65 -12 8 -25 11 -29 7 -5 -4 -5 -2
-2 4 3 6 -9 26 -28 44 -40 39 -43 50 -14 50 13 0 38 -18 62 -45 22 -25 44 -45
49 -45 16 0 8 49 -9 59 -15 9 -16 12 -4 20 21 13 -47 33 -108 30 -31 -2 -57 3
-68 12 -10 7 6 -13 35 -46z"/>
<path d="M4566 4134 c-22 -21 -20 -41 6 -55 18 -10 24 -8 35 7 16 22 17 36 1
52 -16 16 -23 15 -42 -4z"/>
<path d="M4510 4130 c-8 -5 -25 -10 -38 -10 -22 0 -20 -4 23 -60 25 -33 50
-60 56 -60 5 0 9 -9 9 -21 0 -11 9 -32 20 -46 11 -14 20 -20 20 -13 0 7 7 10
15 6 12 -4 14 0 11 18 -3 18 0 23 12 21 11 -1 16 -10 14 -23 -2 -12 1 -30 7
-39 6 -11 11 -13 11 -5 0 7 4 11 9 8 4 -3 17 3 27 13 18 17 20 17 42 -15 26
-39 27 -47 5 -69 -16 -16 -16 -20 3 -54 10 -19 27 -37 37 -39 18 -4 18 -2 2
21 -19 29 -17 92 3 92 7 0 27 -30 45 -67 18 -38 29 -68 24 -68 -5 0 -4 -7 3
-15 7 -8 19 -15 26 -15 17 0 -29 94 -121 248 -88 147 -85 142 -82 107 2 -29 0
-30 -40 -33 -37 -3 -43 -6 -43 -25 0 -30 -15 -51 -30 -42 -7 4 -10 23 -8 46 3
29 0 39 -13 42 -9 3 -25 17 -34 31 -14 22 -16 32 -7 51 13 28 13 28 -8 15z"/>
<path d="M4644 4069 c-3 -6 -1 -16 5 -22 8 -8 11 -5 11 11 0 24 -5 28 -16 11z"/>
<path d="M4718 3673 c19 -37 50 -105 69 -152 38 -97 110 -349 120 -417 3 -25
11 -47 17 -49 6 -2 38 -11 71 -21 33 -9 71 -28 86 -41 33 -30 39 -29 39 6 0
109 -64 358 -135 526 -68 161 -68 161 -72 143 -3 -10 -9 -18 -14 -18 -5 0 -9
-4 -9 -10 0 -5 8 -10 19 -10 18 0 31 -22 47 -85 4 -16 8 -34 9 -40 0 -5 4 -16
8 -22 5 -7 4 -13 0 -13 -5 0 -15 6 -22 13 -11 9 -10 7 0 -10 8 -13 19 -23 25
-23 26 0 34 -90 9 -110 -11 -9 -12 -17 -4 -32 8 -15 14 -17 24 -8 17 14 20 9
35 -73 9 -50 10 -71 2 -79 -8 -8 -13 -6 -18 8 -20 62 -30 77 -68 99 -32 19
-49 39 -70 84 -16 33 -26 66 -23 75 9 23 57 20 85 -6 l24 -23 -4 30 c-3 28 -6
30 -41 29 -33 -1 -38 1 -34 17 3 10 -2 20 -10 23 -29 12 -35 6 -19 -19 20 -31
3 -33 -18 -3 -17 23 -22 53 -8 44 4 -2 14 -1 22 4 12 7 12 11 -1 27 -9 10 -19
26 -22 36 -4 10 -11 15 -17 12 -5 -3 -10 3 -10 14 0 13 9 21 30 26 17 4 30 11
30 17 0 6 -7 8 -15 4 -19 -7 -19 3 0 24 15 16 13 17 -27 17 -44 0 -103 18
-131 41 -8 7 1 -17 21 -55z m220 -460 c2 -10 6 -35 9 -56 5 -36 4 -38 -14 -28
-16 8 -20 21 -20 66 0 39 3 53 10 46 6 -6 13 -19 15 -28z m114 -99 c25 -16
-16 -64 -55 -64 -26 0 -11 20 16 21 18 0 16 3 -10 15 -18 8 -33 21 -33 30 0
13 7 15 37 9 21 -4 41 -9 45 -11z"/>
<path d="M4909 3561 c7 -5 17 -15 22 -22 6 -10 9 -8 9 9 0 16 -6 22 -22 22
-17 0 -19 -3 -9 -9z"/>
<path d="M5081 3460 c0 -8 4 -24 9 -35 5 -13 9 -14 9 -5 0 8 -4 24 -9 35 -5
13 -9 14 -9 5z"/>
<path d="M4894 3368 c8 -41 39 -73 61 -65 13 6 11 13 -17 51 -39 54 -53 58
-44 14z"/>
<path d="M5094 2289 c-10 -12 -18 -31 -16 -43 3 -20 3 -20 -10 -3 -12 16 -17
16 -58 3 -25 -8 -57 -17 -71 -20 -22 -5 -27 -12 -33 -52 -11 -83 -8 -112 14
-124 13 -7 20 -21 20 -39 0 -46 35 -81 79 -81 31 0 40 5 49 25 17 37 14 74 -7
122 -19 41 -20 42 -49 31 -24 -9 -34 -9 -46 2 -15 12 -14 24 2 25 20 2 52 18
52 26 0 16 -27 21 -50 9 -29 -16 -37 -5 -15 20 22 24 57 26 94 4 36 -21 51
-47 61 -103 6 -34 8 -12 9 87 0 72 -1 132 -2 132 -2 0 -12 -9 -23 -21z"/>
</g>
</svg>
